<svg width="2191" height="380" viewBox="0 0 2191 380" fill="none" xmlns="http://www.w3.org/2000/svg">
<path d="M754.515 269.601C767.871 282.505 785.636 289.706 804.114 289.706C822.593 289.706 840.358 282.505 853.714 269.601C866.376 255.78 873.421 237.636 873.421 218.797C873.421 199.958 866.376 181.814 853.714 167.993C840.396 155.023 822.612 147.776 804.114 147.776C785.617 147.776 767.833 155.023 754.515 167.993C741.786 181.782 734.708 199.939 734.708 218.797C734.708 237.655 741.786 255.812 754.515 269.601ZM873.421 107.856H921.022V329.642H873.421V297.697C864.777 309.997 853.21 319.898 839.786 326.49C826.353 333.082 811.502 336.152 796.593 335.416C782.085 335.576 767.7 332.633 754.391 326.779C741.091 320.926 729.158 312.293 719.385 301.45C698.819 278.887 687.402 249.332 687.402 218.653C687.402 187.975 698.819 158.418 719.385 135.856C729.187 125.069 741.129 116.494 754.438 110.691C767.738 104.888 782.104 101.988 796.593 102.179C811.454 101.416 826.268 104.423 839.691 110.927C853.105 117.43 864.701 127.225 873.421 139.416V107.856Z" fill="#052222"/>
<path d="M1078.67 102.097C1089.95 101.631 1101.2 103.567 1111.7 107.777C1122.19 111.988 1131.71 118.379 1139.6 126.537C1147.71 135.642 1153.94 146.286 1157.94 157.848C1161.95 169.411 1163.65 181.662 1162.92 193.891V330.042H1115.32V198.413C1115.82 191.434 1114.91 184.424 1112.66 177.809C1110.4 171.194 1106.83 165.11 1102.18 159.925C1097.39 155.365 1091.72 151.838 1085.54 149.556C1079.35 147.272 1072.78 146.283 1066.2 146.647C1058.75 146.308 1051.33 147.536 1044.38 150.252C1037.43 152.969 1031.12 157.115 1025.83 162.427C1020.24 169.019 1016.01 176.665 1013.36 184.922C1010.71 193.18 1009.7 201.886 1010.41 210.537V329.369H962.809V107.87H1010.41V136.736C1024.78 114.028 1047.44 102.578 1078.48 102.578" fill="#052222"/>
<path d="M1259.76 269.602C1273.11 282.506 1290.88 289.707 1309.36 289.707C1327.83 289.707 1345.6 282.506 1358.96 269.602C1371.63 255.781 1378.66 237.637 1378.66 218.798C1378.66 199.959 1371.63 181.815 1358.96 167.994C1345.64 155.023 1327.85 147.777 1309.36 147.777C1290.86 147.777 1273.07 155.023 1259.76 167.994C1247.09 181.815 1240.05 199.959 1240.05 218.798C1240.05 237.637 1247.09 255.781 1259.76 269.602ZM1378.66 107.856H1426.26V329.643H1378.66V297.698C1370.04 309.996 1358.49 319.899 1345.08 326.491C1331.66 333.084 1316.83 336.153 1301.93 335.416C1287.4 335.578 1273.01 332.635 1259.69 326.782C1246.36 320.929 1234.41 312.296 1224.63 301.451C1204.06 278.887 1192.65 249.331 1192.65 218.653C1192.65 187.975 1204.06 158.419 1224.63 135.856C1234.45 125.067 1246.41 116.492 1259.73 110.689C1273.05 104.886 1287.43 101.987 1301.93 102.179C1316.78 101.414 1331.59 104.422 1344.99 110.926C1358.39 117.431 1369.97 127.226 1378.66 139.416V107.856Z" fill="#052222"/>
<path d="M1517.48 168.765C1517.6 172.542 1518.82 176.199 1520.99 179.279C1523.16 182.359 1526.17 184.726 1529.66 186.084C1539.02 190.812 1548.77 194.707 1558.8 197.727L1593.73 208.6C1605.5 212.253 1615.9 219.434 1623.53 229.191C1633.14 242.633 1637.22 259.316 1634.91 275.734C1632.61 292.152 1624.09 307.027 1611.16 317.232C1593.25 329.864 1571.76 336.249 1549.94 335.418C1530.49 335.95 1511.26 331.198 1494.25 321.658C1479.1 312.938 1467.22 299.409 1460.45 283.17L1501.2 259.211C1508.82 280.444 1525.07 291.092 1549.94 291.156C1574.82 291.221 1587.26 282.913 1587.26 266.235C1587.13 262.486 1585.91 258.858 1583.76 255.797C1581.62 252.738 1578.63 250.379 1575.17 249.012C1565.9 244.025 1556.13 240.026 1546.04 237.081L1511.2 226.112C1499.5 222.605 1489.1 215.674 1481.3 206.194C1473 195.9 1468.71 182.899 1469.21 169.631C1468.94 160.165 1470.88 150.767 1474.89 142.205C1478.88 133.642 1484.83 126.159 1492.25 120.366C1508.57 107.625 1528.76 101.025 1549.37 101.699C1566.34 101.42 1583.07 105.634 1597.92 113.919C1611.83 121.802 1623.18 133.603 1630.58 147.885L1590.69 170.497C1587.79 164.921 1583.82 159.988 1579.01 155.989C1574.2 151.99 1568.64 149.005 1562.67 147.211C1556.7 145.417 1550.43 144.851 1544.24 145.545C1538.05 146.239 1532.05 148.18 1526.62 151.253C1523.64 152.987 1521.18 155.506 1519.51 158.537C1517.83 161.57 1517 165.004 1517.1 168.476" fill="#052222"/>
<path d="M1790.89 154.054H1736.43V260.473C1736.09 264.006 1736.45 267.573 1737.5 270.962C1738.55 274.35 1740.25 277.491 1742.52 280.198C1747.62 284.576 1754.11 286.934 1760.8 286.837C1770.83 287.359 1780.86 287.359 1790.89 286.837V329.848C1754.52 334.274 1728.53 331.098 1712.73 320.226C1696.92 309.353 1689.02 289.531 1689.02 260.569V154.054H1648.66V107.868H1689.02V59.7581L1736.62 45.5176V107.579H1791.08L1790.89 154.054Z" fill="#052222"/>
<path d="M1879.98 145.192C1891.98 117.674 1914.45 103.914 1947.58 103.914V155.777C1930.67 154.189 1913.76 158.836 1899.97 168.863C1886.46 178.485 1879.79 195.131 1879.79 217.838V329.646H1832.19V107.859H1879.79L1879.98 145.192Z" fill="#052222"/>
<path d="M2023.65 269.602C2037.01 282.506 2054.77 289.707 2073.25 289.707C2091.73 289.707 2109.5 282.506 2122.85 269.602C2135.51 255.781 2142.56 237.637 2142.56 218.798C2142.56 199.959 2135.51 181.815 2122.85 167.994C2109.53 155.023 2091.75 147.777 2073.25 147.777C2054.75 147.777 2036.97 155.023 2023.65 167.994C2010.99 181.815 2003.95 199.959 2003.95 218.798C2003.95 237.637 2010.99 255.781 2023.65 269.602ZM2142.56 107.856H2190.16V329.643H2142.56V297.698C2133.93 309.996 2122.39 319.899 2108.97 326.491C2095.56 333.084 2080.73 336.153 2065.83 335.416C2051.3 335.578 2036.9 332.635 2023.59 326.782C2010.26 320.929 1998.31 312.296 1988.52 301.451C1967.96 278.887 1956.54 249.331 1956.54 218.653C1956.54 187.975 1967.96 158.419 1988.52 135.856C1998.35 125.067 2010.3 116.492 2023.62 110.689C2036.94 104.886 2051.33 101.987 2065.83 102.179C2080.68 101.414 2095.48 104.422 2108.89 110.926C2122.29 117.431 2133.87 127.226 2142.56 139.416V107.856Z" fill="#052222"/>
<path d="M539.076 278.648V329.067H490.047V60.2285H539.076L539.742 207.06L627.327 107.954H690.16L608.192 200.325L686.447 329.067H631.135L574.49 239.005L539.076 278.648Z" fill="#052222"/>
<path fill-rule="evenodd" clip-rule="evenodd" d="M251.736 126.553H166.551C161.033 126.553 155.741 124.361 151.839 120.459C147.937 116.556 145.745 111.264 145.745 105.746V20.8067C145.761 15.2934 147.958 10.0104 151.857 6.1119C155.755 2.21342 161.038 0.0161444 166.551 0H251.307C256.939 0 262.34 2.23735 266.323 6.21966C270.305 10.202 272.542 15.603 272.542 21.2349V105.746C272.542 111.264 270.35 116.556 266.448 120.459C262.546 124.361 257.254 126.553 251.736 126.553ZM108.108 131.746L266.482 281.002H266.238C268.143 282.706 269.671 284.79 270.725 287.118C271.779 289.447 272.335 291.971 272.357 294.527V358.17C272.357 363.807 270.122 369.215 266.141 373.207C262.161 377.199 256.76 379.45 251.122 379.466H177.687C172.934 379.458 168.362 377.642 164.898 374.387L6.768 225.192C4.86264 223.488 3.33445 221.405 2.28067 219.076C1.22689 216.747 0.670736 214.224 0.648438 211.668V147.902C0.648438 145.113 1.19783 142.352 2.26498 139.776C3.33214 137.199 4.89626 134.858 6.8681 132.886C8.83995 130.915 11.1807 129.351 13.7571 128.283C16.3334 127.216 19.0949 126.667 21.8835 126.667H95.3182C100.079 126.638 104.665 128.459 108.108 131.746Z" fill="#052222"/>
</svg>
