<svg version="1.1" id="svg14" xmlns="http://www.w3.org/2000/svg" x="0" y="0" viewBox="0 0 2500 2124.1" style="enable-background:new 0 0 2500 2124.1" xml:space="preserve"><style>.st0{fill-rule:evenodd;clip-rule:evenodd;fill:#ff774a}</style><g id="g10" transform="matrix(3.47067 0 0 3.47067 107.263 140.316)"><path id="polygon2" class="st0" d="M644 101.3h-65V462h65V250h45.4v-64.4H644z"/><path id="path4" class="st0" d="M435.8 571.6h-64.9V97c0-75.8 62.2-137.4 138.5-137.4V24c-40.6 0-73.6 32.7-73.6 73v474.6z"/><path id="path6" class="st0" d="M338.1 185.6h208.1L527.8 250H338.1c-14.5 57.3-66.9 99.8-129.1 99.8-73.4 0-133.1-59.2-133.1-132s59.7-132 133.1-132c62.2-.1 114.6 42.5 129.1 99.8zm-203.8 32.2c0 40.8 33.5 74.1 74.7 74.1s74.7-33.2 74.7-74.1-33.5-74.1-74.7-74.1-74.7 33.2-74.7 74.1z"/><path id="path8" class="st0" d="M148.9 457.7c-99.1 0-179.8-80-179.8-178.3V101.3H34v178.1c0 62.8 51.5 113.9 114.8 113.9v64.4z"/></g></svg>