<?xml version="1.0" encoding="UTF-8" standalone="no"?>
<!-- Generator: Adobe Illustrator 16.0.3, SVG Export Plug-In . SVG Version: 6.00 Build 0)  -->

<svg
   version="1.1"
   id="Capa_1"
   x="0px"
   y="0px"
   width="3888.8191"
   height="720"
   viewBox="0 0 3888.8191 720"
   enable-background="new 0 0 612 792"
   xml:space="preserve"
   sodipodi:docname="Logo de Merama.svg"
   inkscape:version="1.1 (c68e22c387, 2021-05-23)"
   xmlns:inkscape="http://www.inkscape.org/namespaces/inkscape"
   xmlns:sodipodi="http://sodipodi.sourceforge.net/DTD/sodipodi-0.dtd"
   xmlns:xlink="http://www.w3.org/1999/xlink"
   xmlns="http://www.w3.org/2000/svg"
   xmlns:svg="http://www.w3.org/2000/svg"><defs
   id="defs39" /><sodipodi:namedview
   id="namedview37"
   pagecolor="#ffffff"
   bordercolor="#666666"
   borderopacity="1.0"
   inkscape:pageshadow="2"
   inkscape:pageopacity="0.0"
   inkscape:pagecheckerboard="0"
   showgrid="false"
   fit-margin-top="0"
   fit-margin-left="0"
   fit-margin-right="0"
   fit-margin-bottom="0"
   inkscape:zoom="0.18570481"
   inkscape:cx="2307.4254"
   inkscape:cy="428.09877"
   inkscape:window-width="1920"
   inkscape:window-height="1017"
   inkscape:window-x="-8"
   inkscape:window-y="-8"
   inkscape:window-maximized="1"
   inkscape:current-layer="Capa_1" />
<g
   id="g34"
   transform="matrix(6.4561282,0,0,6.4561282,14.799096,-2380.1553)">
	<defs
   id="defs3">
		<rect
   id="SVGID_1_"
   x="-64"
   y="242"
   width="739"
   height="307" />
	</defs>
	<clipPath
   id="SVGID_2_">
		<use
   xlink:href="#SVGID_1_"
   overflow="visible"
   id="use5"
   x="0"
   y="0"
   width="100%"
   height="100%" />
	</clipPath>
	<g
   clip-path="url(#SVGID_2_)"
   id="g32">
		<g
   id="g30">
			
			<path
   fill-rule="evenodd"
   clip-rule="evenodd"
   fill="#2e4056"
   d="m 435.165,422.201 c 10e-4,-6.497 0.033,-12.995 -0.006,-19.492 -0.062,-10.346 -7.346,-18.277 -16.975,-18.541 -9.665,-0.265 -17.813,7.775 -17.971,18.239 -0.204,13.491 -0.177,26.99 0.041,40.481 0.058,3.571 -1.004,4.678 -4.466,4.324 -4.424,-0.451 -10.268,1.819 -12.962,-0.876 -2.702,-2.703 -0.738,-8.529 -0.793,-12.981 -0.115,-9.328 -0.189,-18.662 0,-27.987 0.312,-15.364 7.091,-27.054 21.273,-33.279 14.077,-6.18 27.328,-3.873 38.851,6.556 1.648,1.492 2.492,1.854 4.359,0.138 11.611,-10.674 25.092,-12.961 39.266,-6.579 14.275,6.427 20.925,18.424 21.035,33.992 0.086,12.161 -0.095,24.325 0.092,36.484 0.051,3.34 -0.613,4.871 -4.315,4.551 -4.453,-0.384 -10.272,1.387 -13.066,-0.835 -2.974,-2.365 -0.876,-8.423 -0.945,-12.856 -0.156,-9.993 -0.005,-19.991 -0.061,-29.986 -0.062,-11.083 -7.33,-19.197 -17.264,-19.391 -10.057,-0.195 -17.723,8.095 -17.775,19.374 -0.063,13.161 -0.121,26.323 0.048,39.482 0.042,3.221 -0.778,4.474 -4.128,4.207 -3.477,-0.275 -7.009,-0.269 -10.486,10e-4 -3.243,0.251 -3.897,-1.092 -3.815,-4.036 0.193,-6.992 0.061,-13.993 0.063,-20.99 z"
   id="path10" />
			<path
   fill-rule="evenodd"
   clip-rule="evenodd"
   fill="#2e4056"
   d="m 51,450.783 c 0,-16.646 0.012,-32.137 -0.004,-47.627 -0.011,-10.688 -7.281,-18.756 -17.068,-18.987 -9.953,-0.236 -17.777,7.899 -17.91,18.781 -0.097,7.996 -0.218,16.001 0.072,23.987 0.132,3.629 -1.078,4.564 -4.477,4.294 -3.642,-0.291 -7.33,-0.181 -10.988,-0.03 -2.234,0.091 -2.857,-0.771 -2.819,-2.895 0.172,-9.491 -0.588,-19.079 0.508,-28.455 1.616,-13.815 9.572,-23.718 22.647,-28.606 13.015,-4.865 25.299,-2.665 35.935,6.429 2.457,2.102 3.629,2.552 6.309,0.246 11.235,-9.669 24.093,-11.836 37.679,-5.995 13.626,5.857 20.761,16.806 21.52,31.564 0.418,8.142 0.004,16.323 0.1,24.485 0.027,2.29 -0.56,3.336 -3.061,3.231 -3.992,-0.166 -8.001,-0.183 -11.991,0.005 -2.696,0.126 -3.38,-0.93 -3.338,-3.479 0.135,-8.161 0.075,-16.325 0.043,-24.488 -0.043,-10.981 -7.597,-19.211 -17.465,-19.08 -10.045,0.133 -17.454,8.198 -17.516,19.203 -0.061,10.662 -0.104,21.326 0.045,31.986 0.039,2.797 -0.696,4.542 -3.234,5.987 -4.847,2.765 -9.467,5.932 -14.987,9.444 z"
   id="path12" />
			<path
   id="path14"
   style="stroke-width:6.45613;fill:#2e4056;fill-opacity:1"
   d="M 2090.1211 1.7246094 C 2010.6649 1.7375221 1939.6407 37.113653 1898.7363 81.804688 C 1815.2715 172.96522 1807.621 319.92036 1881.9375 420.85547 C 1917.1363 468.65664 1964.2402 498.73635 2021.377 512.83008 C 2110.0196 534.69698 2190.7795 516.78018 2262.959 458.66211 C 2273.1855 506.82483 2273.185 506.82601 2322.3613 506.80664 C 2332.0326 506.80018 2341.7875 506.00424 2351.3555 506.97266 C 2366.6113 508.50921 2371.6538 503.00388 2371.5957 487.2832 C 2371.0728 336.81022 2371.325 186.34993 2371.1895 35.876953 C 2371.183 28.917247 2373.8883 17.65793 2364.0879 17.238281 C 2335.1773 15.979336 2305.3167 13.035296 2277.4844 18.78125 C 2260.4918 22.286928 2272.5338 47.821159 2263.5469 63.871094 C 2206.6309 19.366985 2146.2702 1.7154844 2090.1211 1.7246094 z M 2103.9902 104.39453 C 2192.2068 104.63341 2260.9181 173.96744 2260.4727 262.30664 C 2260.0401 351.16879 2190.7343 421.29411 2103.9316 420.73242 C 2014.4239 420.15783 1947.0019 349.97352 1948.2285 258.63867 C 1949.41 170.00894 2015.9093 104.16211 2103.9902 104.39453 z "
   transform="matrix(0.1548916,0,0,0.1548916,-2.2922556,368.66605)" />
			<path
   id="path16"
   style="stroke-width:6.45613;fill:#2e4056;fill-opacity:1"
   d="M 3606.0449 2.1699219 C 3533.1094 2.4415481 3465.8532 32.091194 3422.9512 74.896484 C 3336.8522 160.80173 3323.3324 310.32564 3393.7559 413.23633 C 3427.87 463.09701 3474.9547 496.07555 3532.8984 511.48633 C 3623.2778 535.50958 3706.5358 518.51085 3780.8652 458.4043 C 3790.175 506.77361 3790.1755 506.77284 3837.2148 506.7793 C 3846.8926 506.78575 3856.6985 505.75261 3866.2148 506.99219 C 3885.5058 509.51008 3888.8829 500.39428 3888.8184 483.17578 C 3888.2373 335.88567 3888.5015 188.58953 3888.4434 41.292969 C 3888.4369 28.903659 3891.3046 10.800651 3870.8516 16.824219 C 3842.9675 25.036414 3806.5931 -6.425015 3786.4629 34.855469 C 3784.7068 38.457988 3785.5908 43.333465 3785.1582 47.607422 C 3784.6482 52.66257 3784.0351 57.710498 3783.0215 66.716797 C 3726.8125 20.668009 3664.5988 1.9518557 3606.0449 2.1699219 z M 3620.5273 104.39453 C 3709.6606 104.34934 3777.4958 172.04942 3777.6895 261.23438 C 3777.8896 350.65175 3709.8215 420.55751 3622.3926 420.73828 C 3534.6925 420.91905 3466.5544 352.34245 3465.4375 262.76367 C 3464.3206 173.15261 3531.62 104.43327 3620.5273 104.39453 z "
   transform="matrix(0.1548916,0,0,0.1548916,-2.2922556,368.66605)" />
			<path
   id="path18"
   style="stroke-width:6.45613;fill:#2e4056;fill-opacity:1"
   d="M 1137.3223 0.6015625 C 961.64933 -0.1062721 828.86097 163.7613 880.23047 336.95703 C 919.59994 469.67566 1060.8671 547.91171 1202.6953 515.03711 C 1290.7569 494.62929 1353.9677 444.18187 1392.3945 356.25586 C 1350.5588 356.25586 1313.2935 356.53201 1276.0352 356.08008 C 1265.5439 355.95096 1261.6327 362.99461 1255.9707 369.47656 C 1179.4075 457.07331 1044.4359 436.32413 996.16992 329.70117 C 981.95353 298.29211 983.46302 295.74127 1018.0098 295.70898 C 1136.2279 295.60569 1254.4729 294.38537 1372.6523 296.4707 C 1405.4172 297.05175 1411.5825 285.35428 1410.8594 256.10156 C 1407.6765 127.37928 1317.0387 26.346886 1182.8223 4.421875 C 1167.4047 1.9034806 1152.2098 0.66154848 1137.3223 0.6015625 z M 1140.1348 95.601562 C 1203.4888 95.633843 1261.4972 136.97931 1281.3691 194.21289 C 1286.831 209.94002 1282.6593 212.52273 1268.2363 212.36133 C 1224.2249 211.85775 1180.2021 212.17475 1136.1777 212.20703 C 1093.2251 212.24577 1050.2723 211.89638 1007.3262 212.42578 C 992.27694 212.60655 989.26717 209.12682 994.63867 193.93555 C 1014.7624 137.10225 1075.0505 95.562826 1140.1348 95.601562 z "
   transform="matrix(0.1548916,0,0,0.1548916,-2.2922556,368.66605)" />
			<path
   fill-rule="evenodd"
   clip-rule="evenodd"
   fill="#35c585"
   d="m 59.155,480.188 c -23.297,-0.641 -41.729,-9.804 -55.21,-28.667 -2.154,-3.014 -2.24,-4.811 0.943,-7.253 5.503,-4.221 5.241,-4.39 9.882,0.636 9.388,10.164 21.465,15.036 34.861,16.561 18.153,2.065 35.19,-0.928 49.777,-12.932 1.153,-0.95 2.164,-2.071 3.271,-3.079 1.799,-1.641 2.947,-5.581 4.937,-4.959 2.944,0.919 5.376,3.755 7.778,6.037 1.786,1.696 -0.242,3.069 -1.072,4.279 -13.347,19.472 -32.1,28.738 -55.167,29.377 z"
   id="path20" />
			<path
   fill-rule="evenodd"
   clip-rule="evenodd"
   fill="#2e4056"
   d="m 244.362,379.744 c 8.805,-8.221 19.401,-9.771 30.101,-8.298 6.479,0.893 1.73,7.325 2.865,11.074 0.546,1.802 1.24,4.989 -2.873,4.673 -2.315,-0.178 -4.658,-0.094 -6.985,-0.013 -12.853,0.443 -20.937,8.043 -21.402,20.861 -0.424,11.631 -0.287,23.286 -0.169,34.929 0.031,3.143 -0.646,4.538 -4.085,4.255 -4.44,-0.366 -10.255,1.366 -13.011,-0.859 -2.92,-2.359 -0.894,-8.403 -0.919,-12.825 -0.108,-18.8 0.194,-37.606 -0.199,-56.399 -0.111,-5.324 1.572,-6.328 6.374,-6.08 7.694,0.395 7.709,0.104 10.303,8.682 z"
   id="path22" />
			
			
			
		</g>
	</g>
</g>
</svg>
