<svg width="197" height="42" viewBox="0 0 197 42" fill="none" xmlns="http://www.w3.org/2000/svg">
<path
    d="M75.476 10.5295C73.6356 10.5295 72.0305 11.7802 71.5797 13.5651L65.88 35.0389H64.3847L58.648 13.5161C58.1959 11.7339 56.5908 10.4858 54.7517 10.4858H54.7226C52.0572 10.4858 50.1309 13.0322 50.8541 15.5972L56.7521 35.6722C57.8085 39.4152 61.2248 41.9999 65.1145 41.9999C69.0042 41.9999 72.4245 39.4112 73.4782 35.6643L79.3445 15.6368C80.0664 13.0732 78.1387 10.5295 75.476 10.5295Z"
    fill="#96E150"
  />
<path
    d="M0 37.0049V14.4562C0 12.2628 1.77825 10.4858 3.97033 10.4858C6.09366 10.4858 7.8415 12.157 7.93669 14.2777L8.19186 19.9575V37.0049C8.19186 39.2671 6.35808 41.1009 4.09593 41.1009C1.83378 41.1009 0 39.2671 0 37.0049Z"
    fill="#96E150"
  />
<path
    d="M14.6729 10.5029C12.387 10.5029 10.5347 12.3552 10.5347 14.6412V18.5599C10.5347 20.8459 12.387 22.6982 14.6729 22.6982C16.9589 22.6982 18.8111 20.8459 18.8111 18.5599V14.6412C18.8111 12.3552 16.9589 10.5029 14.6729 10.5029Z"
    fill="url(#paint0_linear_57_108)"
  />
<path
    d="M128.138 10.5029C125.852 10.5029 124 12.3552 124 14.6412V18.5599C124 20.8459 125.852 22.6982 128.138 22.6982C130.424 22.6982 132.276 20.8459 132.276 18.5599V14.6412C132.276 12.3552 130.424 10.5029 128.138 10.5029Z"
    fill="url(#paint1_linear_57_108)"
  />
<path
    d="M113.758 37.0049V14.4562C113.758 12.2628 115.536 10.4858 117.728 10.4858C119.852 10.4858 121.599 12.157 121.695 14.2777L121.95 19.9575V37.0049C121.95 39.2671 120.116 41.1009 117.854 41.1009C115.592 41.1009 113.758 39.2671 113.758 37.0049Z"
    fill="#96E150"
  />
<path
    d="M146.753 41.8982C143.26 41.8982 140.601 40.7612 138.774 38.4872C136.947 36.2131 136.033 32.843 136.033 28.3756V24.3854C136.033 19.8585 136.952 16.4315 138.79 14.1059C140.627 11.7816 143.373 10.6195 147.028 10.6195C148.814 10.6195 150.321 10.909 151.551 11.4868C152.779 12.0659 153.764 12.883 154.504 13.9393C155.246 14.9957 155.768 16.2438 156.072 17.6849H158.418L156.408 23.5326C156.367 22.1722 156.088 21.0206 155.571 20.0766C155.053 19.1326 154.338 18.4174 153.424 17.9295C152.511 17.4416 151.415 17.1984 150.135 17.1984C148.247 17.1984 146.8 17.747 145.794 18.8431C144.788 19.9391 144.287 21.5838 144.287 23.7772V28.558C144.287 30.7104 144.789 32.3393 145.794 33.4472C146.799 34.5552 148.276 35.1065 150.226 35.1065C151.323 35.1065 152.298 34.9029 153.15 34.497C154.003 34.0911 154.718 33.5385 155.298 32.8377C155.877 32.137 156.288 31.3411 156.531 30.4473L158.51 34.8328H156.195C155.891 36.1325 155.373 37.3197 154.642 38.3959C153.911 39.4721 152.91 40.3249 151.642 40.9542C150.373 41.5836 148.744 41.8982 146.754 41.8982H146.753ZM156.409 37.0434L156.521 34.0435C156.526 33.8994 156.523 33.754 156.513 33.6099L156.416 32.2639C156.409 32.1687 156.406 32.0749 156.406 31.9797V18.6606L156.284 10.0721V4.94098C156.284 2.72908 158.077 0.936279 160.289 0.936279H160.41C162.622 0.936279 164.415 2.72908 164.415 4.94098V37.1941C164.415 39.406 162.622 41.1988 160.41 41.1988C158.14 41.1988 156.324 39.3135 156.408 37.0447L156.409 37.0434Z"
    fill="#96E150"
  />
<path
    d="M184.848 41.9285C179.65 41.9285 175.792 40.7465 173.275 38.3799C170.757 36.0146 169.499 32.5679 169.499 28.0396V24.3548C169.499 19.8874 170.677 16.4565 173.031 14.0608C175.386 11.6651 178.818 10.4673 183.325 10.4673C186.35 10.4673 188.878 10.9961 190.909 12.0512C192.94 13.1076 194.463 14.6095 195.477 16.5596C196.492 18.5084 197 20.8433 197 23.5642V24.5994C197 24.7766 196.985 25.078 196.96 25.4469C196.824 27.4711 195.145 29.0457 193.117 29.0457H189.203C189.264 27.9087 189.305 26.8325 189.325 25.8171C189.345 24.8017 189.355 23.8881 189.355 23.0764C189.355 21.7159 189.137 20.559 188.701 19.6045C188.263 18.6499 187.605 17.9293 186.722 17.4415C185.839 16.9536 184.707 16.7103 183.327 16.7103C181.296 16.7103 179.799 17.2683 178.834 18.3855C177.87 19.5027 177.388 21.0958 177.388 23.1663V25.907L177.418 26.8206V29.1356C177.418 30.0294 177.56 30.8557 177.844 31.6173C178.128 32.3788 178.609 33.0438 179.29 33.6123C179.97 34.1809 180.878 34.6224 182.016 34.9371C183.153 35.2518 184.585 35.4091 186.311 35.4091C188.179 35.4091 189.96 35.2068 191.656 34.7996C191.865 34.7494 192.074 34.6978 192.281 34.6436C194.305 34.1134 196.227 35.7846 195.996 37.8643C195.876 38.9484 195.182 39.8898 194.172 40.3009C193.209 40.6923 192.153 41.0215 191.002 41.2873C189.155 41.713 187.103 41.9272 184.85 41.9272L184.848 41.9285ZM173.823 29.0457V23.7163H192.609V29.0457H173.823Z"
    fill="#96E150"
  />
<path
    d="M96.3283 41.9285C91.1298 41.9285 87.2718 40.7465 84.7545 38.3799C82.2372 36.0146 80.9785 32.5679 80.9785 28.0396V24.3548C80.9785 19.8874 82.1565 16.4565 84.5112 14.0608C86.8659 11.6651 90.2981 10.4673 94.8053 10.4673C97.8303 10.4673 100.358 10.9961 102.389 12.0512C104.42 13.1076 105.943 14.6095 106.957 16.5596C107.972 18.5084 108.48 20.8433 108.48 23.5642V24.5994C108.48 24.7766 108.465 25.078 108.44 25.4469C108.304 27.4711 106.625 29.0457 104.597 29.0457H100.683C100.744 27.9087 100.785 26.8325 100.805 25.8171C100.825 24.8017 100.835 23.8881 100.835 23.0764C100.835 21.7159 100.617 20.559 100.181 19.6045C99.7434 18.6499 99.085 17.9293 98.2018 17.4415C97.3186 16.9536 96.1869 16.7103 94.8066 16.7103C92.7758 16.7103 91.2792 17.2683 90.314 18.3855C89.3502 19.5027 88.8676 21.0958 88.8676 23.1663V25.907L88.898 26.8206V29.1356C88.898 30.0294 89.0395 30.8557 89.3237 31.6173C89.608 32.3788 90.0893 33.0438 90.7701 33.6123C91.4497 34.1809 92.358 34.6224 93.4964 34.9371C94.6334 35.2518 96.0652 35.4091 97.7906 35.4091C99.6588 35.4091 101.44 35.2068 103.136 34.7996C103.345 34.7494 103.554 34.6978 103.761 34.6436C105.785 34.1134 107.707 35.7846 107.476 37.8643C107.356 38.9484 106.662 39.8898 105.652 40.3009C104.689 40.6923 103.633 41.0215 102.481 41.2873C100.634 41.713 98.5826 41.9272 96.3297 41.9272L96.3283 41.9285ZM85.3032 29.0457V23.7163H104.089V29.0457H85.3032Z"
    fill="#96E150"
  />
<path
    d="M36.9427 41.9285C31.7441 41.9285 27.8862 40.7465 25.3689 38.3799C22.8516 36.0146 21.5929 32.5679 21.5929 28.0396V24.3548C21.5929 19.8874 22.7709 16.4565 25.1256 14.0608C27.4803 11.6651 30.9125 10.4673 35.4196 10.4673C38.4446 10.4673 40.9725 10.9961 43.0033 12.0512C45.0341 13.1076 46.5572 14.6095 47.5713 16.5596C48.5866 18.5084 49.0943 20.8433 49.0943 23.5642V24.5994C49.0943 24.7766 49.0798 25.078 49.0547 25.4469C48.9185 27.4711 47.2394 29.0457 45.2113 29.0457H41.2978C41.3586 27.9087 41.3996 26.8325 41.4194 25.8171C41.4393 24.8017 41.4498 23.8881 41.4498 23.0764C41.4498 21.7159 41.2317 20.559 40.7954 19.6045C40.3578 18.6499 39.6993 17.9293 38.8162 17.4415C37.933 16.9536 36.8013 16.7103 35.421 16.7103C33.3902 16.7103 31.8935 17.2683 30.9284 18.3855C29.9646 19.5027 29.482 21.0958 29.482 23.1663V25.907L29.5124 26.8206V29.1356C29.5124 30.0294 29.6539 30.8557 29.9381 31.6173C30.2224 32.3788 30.7036 33.0438 31.3845 33.6123C32.0641 34.1809 32.9724 34.6224 34.1107 34.9371C35.2478 35.2518 36.6796 35.4091 38.405 35.4091C40.2731 35.4091 42.054 35.2068 43.7503 34.7996C43.9592 34.7494 44.1681 34.6978 44.3757 34.6436C46.3999 34.1134 48.3209 35.7846 48.0908 37.8643C47.9705 38.9484 47.2764 39.8898 46.2663 40.3009C45.3038 40.6923 44.2474 41.0215 43.0959 41.2873C41.2489 41.713 39.1969 41.9272 36.944 41.9272L36.9427 41.9285ZM25.9176 29.0457V23.7163H44.7036V29.0457H25.9176Z"
    fill="#96E150"
  />
<defs>
<linearGradient
      id="paint0_linear_57_108"
      x1="14.6729"
      y1="22.6995"
      x2="14.6729"
      y2="10.5029"
      gradientUnits="userSpaceOnUse"
    >
<stop stop-color="#FFDC00" />
<stop offset="1" stop-color="#96E150" />
</linearGradient>
<linearGradient
      id="paint1_linear_57_108"
      x1="128.138"
      y1="22.6995"
      x2="128.138"
      y2="10.5029"
      gradientUnits="userSpaceOnUse"
    >
<stop stop-color="#FFDC00" />
<stop offset="1" stop-color="#96E150" />
</linearGradient>
</defs>
</svg>
