<svg width="476" height="108" viewBox="0 0 476 108" fill="none" xmlns="http://www.w3.org/2000/svg">
<path d="M91.148 75.66C92.2333 75.66 93.1707 76.0547 93.96 76.844C94.7493 77.6333 95.144 78.5707 95.144 79.656V102.004C95.144 103.089 94.7493 104.027 93.96 104.816C93.1707 105.605 92.2333 106 91.148 106H4.716C3.63067 106 2.69333 105.605 1.904 104.816C1.11467 104.027 0.72 103.089 0.72 102.004V6.39599C0.72 5.31066 1.11467 4.37333 1.904 3.584C2.69333 2.79466 3.63067 2.39999 4.716 2.39999H36.684C37.7693 2.39999 38.7067 2.79466 39.496 3.584C40.2853 4.37333 40.68 5.31066 40.68 6.39599V75.66H91.148ZM223.698 63.228C223.698 78.324 218.666 89.4733 208.602 96.676C198.637 103.879 185.317 107.48 168.642 107.48C151.968 107.48 138.598 103.879 128.534 96.676C118.569 89.4733 113.586 78.2253 113.586 62.932V45.468C113.586 35.404 115.954 27.0667 120.69 20.456C125.525 13.7467 132.086 8.81333 140.374 5.656C148.662 2.49866 158.085 0.919994 168.642 0.919994C179.2 0.919994 188.573 2.49866 196.762 5.656C205.05 8.81333 211.612 13.6973 216.446 20.308C221.281 26.9187 223.698 35.2067 223.698 45.172V63.228ZM153.546 66.04C153.546 70.0853 154.878 73.1933 157.542 75.364C160.305 77.5347 164.005 78.62 168.642 78.62C173.28 78.62 176.93 77.5347 179.594 75.364C182.357 73.0947 183.738 69.9373 183.738 65.892V42.508C183.738 38.4627 182.357 35.3547 179.594 33.184C176.93 30.9147 173.28 29.78 168.642 29.78C164.005 29.78 160.305 30.8653 157.542 33.036C154.878 35.2067 153.546 38.3147 153.546 42.36V66.04ZM347.664 43.544C348.75 43.544 349.687 43.9387 350.476 44.728C351.266 45.5173 351.66 46.4547 351.66 47.54V63.228C351.66 78.2253 346.53 89.3747 336.268 96.676C326.106 103.879 312.638 107.48 295.864 107.48C279.091 107.48 265.574 103.879 255.312 96.676C245.15 89.3747 240.068 78.1267 240.068 62.932V45.468C240.068 35.404 242.535 27.0667 247.468 20.456C252.402 13.7467 259.062 8.81333 267.448 5.656C275.835 2.49866 285.307 0.919994 295.864 0.919994C308.494 0.919994 318.903 2.99199 327.092 7.13599C335.282 11.28 341.202 15.9667 344.852 21.196C348.602 26.4253 350.476 30.668 350.476 33.924C350.476 34.812 350.131 35.6013 349.44 36.292C348.848 36.884 348.108 37.18 347.22 37.18H313.772C311.799 37.18 310.368 36.6373 309.48 35.552C306.422 31.704 301.883 29.78 295.864 29.78C291.326 29.78 287.527 30.816 284.468 32.888C281.508 34.96 280.028 37.624 280.028 40.88V66.04C280.028 69.9867 281.508 73.0947 284.468 75.364C287.428 77.5347 291.227 78.62 295.864 78.62C301.982 78.62 306.471 77.584 309.332 75.512C312.292 73.3413 313.822 70.8253 313.92 67.964H304.744C303.659 67.964 302.722 67.5693 301.932 66.78C301.143 65.9907 300.748 65.0533 300.748 63.968V47.54C300.748 46.4547 301.143 45.5173 301.932 44.728C302.722 43.9387 303.659 43.544 304.744 43.544H347.664ZM475.183 63.228C475.183 78.324 470.151 89.4733 460.087 96.676C450.121 103.879 436.801 107.48 420.127 107.48C403.452 107.48 390.083 103.879 380.019 96.676C370.053 89.4733 365.071 78.2253 365.071 62.932V45.468C365.071 35.404 367.439 27.0667 372.175 20.456C377.009 13.7467 383.571 8.81333 391.859 5.656C400.147 2.49866 409.569 0.919994 420.127 0.919994C430.684 0.919994 440.057 2.49866 448.247 5.656C456.535 8.81333 463.096 13.6973 467.931 20.308C472.765 26.9187 475.183 35.2067 475.183 45.172V63.228ZM405.031 66.04C405.031 70.0853 406.363 73.1933 409.027 75.364C411.789 77.5347 415.489 78.62 420.127 78.62C424.764 78.62 428.415 77.5347 431.079 75.364C433.841 73.0947 435.223 69.9373 435.223 65.892V42.508C435.223 38.4627 433.841 35.3547 431.079 33.184C428.415 30.9147 424.764 29.78 420.127 29.78C415.489 29.78 411.789 30.8653 409.027 33.036C406.363 35.2067 405.031 38.3147 405.031 42.36V66.04Z" fill="#32A65D"/>
</svg>
