<?xml version="1.0" encoding="UTF-8"?>
<!DOCTYPE svg PUBLIC "-//W3C//DTD SVG 1.1//EN" "http://www.w3.org/Graphics/SVG/1.1/DTD/svg11.dtd">
<!-- Creator: CorelDRAW 2020 (64 Bit) -->
<svg xmlns="http://www.w3.org/2000/svg" xml:space="preserve" width="1748px" height="1240px" version="1.1" style="shape-rendering:geometricPrecision; text-rendering:geometricPrecision; image-rendering:optimizeQuality; fill-rule:evenodd; clip-rule:evenodd"
viewBox="0 0 174800 124014"
 xmlns:xlink="http://www.w3.org/1999/xlink"
 xmlns:xodm="http://www.corel.com/coreldraw/odm/2003"
 role="img"
 aria-label="Logo Akad">
 <defs>
  <style type="text/css">
   <![CDATA[
    .fil1 {fill:none}
    .fil0 {fill:#E8266B;fill-rule:nonzero}
   ]]>
  </style>
 </defs>
 <g id="Camada_x0020_1">
  <metadata id="CorelCorpID_0Corel-Layer"/>
  <g id="_936516502288">
   <path class="fil0" d="M162020 82831c-356,-287 -764,-512 -1197,-660 -470,-162 -967,-245 -1465,-245 -18,0 -36,1 -53,1 -448,0 -832,98 -1150,298 -316,200 -523,433 -620,699 -97,267 -67,533 92,800 158,265 493,470 1004,614l1840 475c429,109 846,265 1242,460 388,195 726,437 1012,723 286,288 513,620 682,999 168,379 253,803 253,1276 0,512 -115,985 -344,1419 -233,439 -551,827 -936,1139 -411,332 -879,590 -1379,760 -532,184 -1094,277 -1656,277 -13,0 -27,0 -40,0 -14,0 -33,0 -48,0 -778,0 -1550,-136 -2281,-400 -696,-248 -1346,-620 -1916,-1090l1226 -1737c358,359 797,640 1319,846 528,202 1088,307 1654,307 15,0 31,0 46,0 359,0 678,-59 959,-177 281,-118 517,-267 705,-446 189,-179 320,-381 392,-607 70,-224 75,-445 14,-660 -61,-215 -201,-417 -422,-607 -219,-189 -524,-335 -911,-439l-1963 -506c-386,-98 -761,-246 -1110,-438 -331,-179 -632,-411 -891,-685 -251,-269 -453,-581 -596,-921 -147,-353 -223,-732 -223,-1114 0,-12 1,-26 1,-38 0,-471 107,-909 321,-1313 217,-409 514,-769 874,-1061 382,-310 820,-550 1288,-706 490,-170 1011,-254 1562,-254 768,0 1483,115 2148,347 639,216 1241,536 1778,944l-1211 1720 0 0 0 0zm-8948 3012c0,850 -161,1644 -482,2381 -308,718 -758,1370 -1319,1913 -1167,1110 -2718,1729 -4328,1729 -11,0 -22,0 -34,0 -16,0 -33,0 -48,0 -809,0 -1610,-157 -2359,-461 -725,-295 -1390,-725 -1954,-1268 -561,-543 -1011,-1195 -1319,-1913 -320,-737 -483,-1533 -483,-2337 0,-15 0,-29 0,-44 0,-851 161,-1644 482,-2381 309,-718 759,-1370 1320,-1914 564,-543 1228,-974 1954,-1267 748,-303 1550,-461 2357,-461 16,0 34,0 49,0 13,0 26,0 38,0 809,0 1613,157 2363,461 729,292 1395,724 1962,1268 1150,1114 1802,2650 1802,4253 0,13 0,27 0,41l-1 0zm-2246 -7c0,-543 -102,-1053 -307,-1529 -196,-464 -480,-888 -835,-1245 -358,-357 -783,-642 -1250,-837 -477,-202 -992,-308 -1512,-308 -6,0 -14,0 -21,0 -542,0 -1049,103 -1525,308 -463,197 -886,481 -1242,837 -355,357 -640,781 -835,1245 -203,473 -307,986 -307,1502 0,8 0,18 0,26 0,543 102,1056 307,1536 205,482 483,900 835,1252 353,354 766,633 1242,838 474,203 984,308 1499,308 8,0 18,0 26,0 542,0 1053,-102 1534,-308 466,-195 891,-481 1248,-838 357,-358 641,-784 836,-1252 205,-481 307,-992 307,-1535l0 0zm-12676 363c-418,610 -1000,1090 -1679,1382l2008 4025 -2423 0 -1824 -3656 -2360 0 0 3656 -2178 0 0 -11546 5059 0c11,0 21,0 32,0 1053,0 2068,401 2835,1122 370,348 657,763 866,1244 515,1195 408,2701 -336,3773l0 0zm-1572 -1983c0,-5 0,-11 0,-15 0,-241 -50,-479 -147,-700 -93,-215 -225,-410 -389,-577 -168,-166 -366,-298 -584,-390 -221,-98 -460,-147 -702,-147 -1,0 -2,0 -3,0l-2881 0 0 3657 2881 0c483,-4 945,-198 1289,-538 164,-166 296,-362 389,-576 98,-220 147,-459 147,-715l0 1zm-9403 3119c0,666 -115,1263 -346,1791 -217,509 -541,971 -951,1343 -417,380 -913,666 -1448,846 -1165,392 -2498,390 -3664,0 -535,-180 -1032,-466 -1448,-846 -411,-373 -731,-834 -951,-1343 -228,-529 -346,-825 -346,-1491l0 -7575 2178 0 0 7275c0,338 61,645 184,921 122,277 291,513 506,708 214,194 470,343 766,445 595,206 1307,207 1902,0 568,-183 1033,-604 1271,-1152 124,-277 184,-583 184,-921l0 -7276 2162 0 0 7275 0 0 1 0zm-11610 2179c-554,646 -1239,1170 -2009,1535 -782,374 -1642,570 -2511,570 -15,0 -33,0 -49,0 -12,0 -25,0 -38,0 -808,0 -1611,-157 -2360,-462 -729,-293 -1397,-724 -1964,-1267 -1150,-1116 -1801,-2651 -1801,-4255 0,-13 0,-27 0,-39 0,-14 0,-28 0,-42 0,-1602 651,-3138 1801,-4253 567,-544 1235,-976 1964,-1268 748,-304 1551,-461 2359,-461 14,0 26,0 39,0 12,0 24,0 36,0 792,0 1576,163 2302,476 718,310 1372,755 1924,1307l-1486 1475c-357,-357 -779,-645 -1242,-845 -473,-203 -983,-308 -1496,-308 -13,0 -25,0 -38,0 -541,0 -1048,103 -1517,308 -463,198 -884,483 -1241,837 -736,727 -1151,1719 -1151,2754 0,7 0,12 0,18 0,7 0,17 0,23 0,520 104,1036 307,1514 196,470 482,896 844,1254 357,352 770,631 1241,836 469,203 976,308 1489,308 9,0 19,0 28,0 480,0 930,-79 1350,-239 413,-156 1150,-598 1150,-875l0 -1562 -2500 0 0 -2105 4569 0 0 4460 0 306 0 0zm-12421 2092l-8448 0 0 -11497 8448 0 0 2105 -6270 0 0 2597 5213 0 0 2104 -5213 0 0 2628 6270 0 0 2063 0 0zm-12233 -8775c-357,-287 -763,-512 -1195,-660 -472,-163 -968,-245 -1467,-245 -17,0 -35,1 -51,1 -450,0 -833,98 -1150,298 -317,200 -524,434 -621,699 -97,267 -67,533 92,800 158,265 493,470 1005,614l1839 475c440,114 853,267 1242,461 389,195 725,437 1011,723 287,287 514,619 683,998 168,380 253,804 253,1276 0,513 -116,985 -345,1420 -232,438 -551,826 -935,1138 -411,332 -880,590 -1380,761 -532,182 -1092,276 -1656,276 -12,0 -25,0 -38,0 -828,0 -1606,-134 -2330,-400 -697,-249 -1347,-620 -1916,-1090l1225 -1737c359,359 798,640 1318,846 529,202 1090,307 1656,307 15,0 32,0 47,0 357,0 676,-59 958,-177 260,-105 499,-255 705,-446 189,-179 319,-381 392,-607 38,-114 58,-234 58,-355 0,-104 -15,-206 -43,-305 -61,-215 -202,-417 -423,-607 -219,-189 -523,-335 -912,-439l-1961 -506c-387,-97 -762,-246 -1112,-438 -329,-179 -631,-411 -889,-684 -253,-269 -456,-582 -598,-921 -147,-354 -223,-734 -223,-1117 0,-11 0,-25 0,-36 0,-471 108,-909 322,-1313 218,-409 516,-769 875,-1060 383,-311 819,-551 1288,-707 490,-169 1011,-254 1563,-254 17,0 34,0 51,0 712,0 1422,117 2095,347 640,216 1241,536 1779,944l-1211 1720 -1 0 0 0z"/>
   <path class="fil0" d="M163526 74589l-35 -41867 -10269 0 0 7819c-2634,-1903 -5638,-2869 -8970,-2869 -4079,0 -7864,1339 -11250,3978 -474,370 -1123,969 -1985,1836l-60 63c-1715,1966 -2967,3987 -3716,5990 -871,2238 -1320,4621 -1320,7023 0,2 0,7 0,9 0,3189 786,6277 2332,9175 504,961 1212,2015 2147,3184 976,1103 1754,1881 2386,2381 699,550 1364,1012 1950,1353 2964,1838 6117,2770 9374,2770l458 -1c1357,0 3000,-264 4958,-811 922,-307 1814,-716 2649,-1211 326,-198 669,-432 1047,-715l0 1893 10304 0 0 0zm-10303 -17912c0,2044 -601,3883 -1830,5615 -266,367 -658,814 -1111,1271l-592 527c-661,493 -1225,853 -1656,1060 -1251,576 -2501,867 -3712,867 -2514,0 -4646,-952 -6467,-2853 -717,-845 -1256,-1659 -1599,-2409 -592,-1290 -902,-2695 -904,-4114l0 -142c0,-2365 764,-4446 2304,-6319 1869,-2081 4085,-3093 6771,-3093 1157,0 2448,336 3815,990 598,299 1210,730 1790,1253 851,823 1041,1073 1112,1173 1397,1778 2079,3740 2079,5996l0 178 0 0zm-90589 -5686l-1451 1377 0 -12032 -10304 0 0 34303 10304 0 0 -12033 1451 1379c249,-233 6830,-6497 6830,-6497 0,0 -6581,-6264 -6830,-6497l0 0 0 0zm28261 -10569l-13410 -33 -11154 10600c249,235 6831,6498 6831,6498l17734 -17065 -1 0 0 0zm-17732 17066c0,0 -6582,6264 -6831,6497l11153 10602 13410 -34 -17734 -17065 1 0 1 0zm50359 17098l0 -34069 -10339 22c-2558,-1905 -5493,-2866 -8759,-2866 -4468,0 -8526,1502 -12116,4515 -4240,3999 -6391,8828 -6391,14383 0,4469 1446,8549 4328,12172 3830,4440 8564,6691 14072,6691l35 0c3390,0 6348,-913 8830,-2720l0 1873 10340 0 0 -1 0 0zm-13238 -10998c-1869,1613 -3719,2395 -5650,2395l-774 0c-1332,0 -2791,-470 -4338,-1401 -2834,-2125 -4210,-4759 -4210,-8047 0,-2097 656,-4060 2009,-5998 2020,-2297 4184,-3415 6609,-3415l562 0c1446,0 2956,472 4484,1403 2832,2060 4206,4681 4206,8046 0,2708 -948,5005 -2898,7017l0 0 0 0zm-81254 -25917c-4468,0 -8526,1503 -12115,4517 -4240,3998 -6391,8826 -6391,14383 0,4467 1446,8548 4328,12171 3829,4440 8564,6691 14071,6691l35 0c3390,0 6348,-913 8830,-2720l0 1873 10339 0 0 -34071 -10338 23c-2558,-1905 -5492,-2867 -8759,-2867l0 0zm5861 25918c-1870,1613 -3719,2395 -5650,2395l-775 0c-1333,0 -2791,-471 -4340,-1402 -2832,-2127 -4209,-4759 -4209,-8047 0,-2097 657,-4060 2012,-5998 2020,-2297 4182,-3414 6607,-3414l562 0c1449,0 2956,471 4486,1403 2830,2059 4204,4680 4204,8045 0,2708 -947,5003 -2897,7017l0 1z"/>
  </g>
  <rect class="fil1" x="6131" y="28349" width="162341" height="67499"/>
 </g>
</svg>
