<?xml version="1.0" encoding="UTF-8" standalone="no"?>
<!-- Created with Inkscape (http://www.inkscape.org/) -->

<svg
   xmlns:dc="http://purl.org/dc/elements/1.1/"
   xmlns:cc="http://creativecommons.org/ns#"
   xmlns:rdf="http://www.w3.org/1999/02/22-rdf-syntax-ns#"
   xmlns:svg="http://www.w3.org/2000/svg"
   xmlns="http://www.w3.org/2000/svg"
   xmlns:sodipodi="http://sodipodi.sourceforge.net/DTD/sodipodi-0.dtd"
   xmlns:inkscape="http://www.inkscape.org/namespaces/inkscape"
   width="131.1105"
   height="48.95612"
   viewBox="0 0 34.689655 12.952973"
   version="1.1"
   id="svg4323"
   inkscape:version="0.92.0 r15299"
   sodipodi:docname="arch capital group2.svg">
  <defs
     id="defs4317" />
  <sodipodi:namedview
     id="base"
     pagecolor="#ffffff"
     bordercolor="#666666"
     borderopacity="1.0"
     inkscape:pageopacity="0.0"
     inkscape:pageshadow="2"
     inkscape:zoom="7.063227"
     inkscape:cx="65.05525"
     inkscape:cy="23.97806"
     inkscape:document-units="mm"
     inkscape:current-layer="layer1"
     showgrid="false"
     fit-margin-top="0"
     fit-margin-left="0"
     fit-margin-right="0"
     fit-margin-bottom="0"
     units="px"
     inkscape:window-width="1280"
     inkscape:window-height="744"
     inkscape:window-x="-4"
     inkscape:window-y="-4"
     inkscape:window-maximized="1" />
  <metadata
     id="metadata4320">
    <rdf:RDF>
      <cc:Work
         rdf:about="">
        <dc:format>image/svg+xml</dc:format>
        <dc:type
           rdf:resource="http://purl.org/dc/dcmitype/StillImage" />
        <dc:title></dc:title>
      </cc:Work>
    </rdf:RDF>
  </metadata>
  <g
     inkscape:label="Layer 1"
     inkscape:groupmode="layer"
     id="layer1"
     transform="translate(4.73932,-142.22456)">
    <g
       transform="translate(-241.82489,-32.655739)"
       id="g4295"
       style="fill:#1e5aaa;fill-opacity:1">
      <path
         inkscape:connector-curvature="0"
         id="path3702"
         style="fill:#1e5aaa;fill-opacity:1;fill-rule:nonzero;stroke:none;stroke-width:0.35277778"
         d="m 237.21786,184.24838 5.27226,-1.52717 -3.29247,0.0984 0.0317,-1.2319 z" />
      <path
         inkscape:connector-curvature="0"
         id="path3706"
         style="fill:#1e5aaa;fill-opacity:1;fill-rule:nonzero;stroke:none;stroke-width:0.35277778"
         d="m 241.91114,185.2647 -0.93768,-0.80151 0.80221,3.23779 2.13149,-5.05742 z" />
      <path
         inkscape:connector-curvature="0"
         id="path3710"
         style="fill:#1e5aaa;fill-opacity:1;fill-rule:nonzero;stroke:none;stroke-width:0.35277778"
         d="m 244.48032,181.59323 2.5654,4.85069 -3.01343,-1.42804 1.21285,-0.21908 z" />
      <path
         inkscape:connector-curvature="0"
         id="path3714"
         style="fill:#1e5aaa;fill-opacity:1;fill-rule:nonzero;stroke:none;stroke-width:0.35277778"
         d="m 244.06958,180.21154 5.40385,0.9525 -2.97815,1.5046 0.57221,-1.09361 z" />
      <path
         inkscape:connector-curvature="0"
         id="path3718"
         style="fill:#1e5aaa;fill-opacity:1;fill-rule:nonzero;stroke:none;stroke-width:0.35277778"
         d="m 243.08801,179.86752 4.20088,-3.53519 -0.76059,3.24803 -0.4699,-1.13877 z" />
      <path
         inkscape:connector-curvature="0"
         id="path3722"
         style="fill:#1e5aaa;fill-opacity:1;fill-rule:nonzero;stroke:none;stroke-width:0.35277778"
         d="m 241.96798,180.49617 0.68298,-3.22192 1.18992,0.32138 -2.10961,-2.58304 z" />
      <path
         inkscape:connector-curvature="0"
         id="path3726"
         style="fill:#1e5aaa;fill-opacity:1;fill-rule:nonzero;stroke:none;stroke-width:0.35277778"
         d="m 237.36645,178.59847 4.47393,3.17923 -2.12337,-2.51777 0.98495,-0.74013 z" />
      <path
         inkscape:connector-curvature="0"
         id="path3738"
         style="fill:#1e5aaa;fill-opacity:1;fill-rule:nonzero;stroke:none;stroke-width:0.35277778"
         d="m 253.51838,177.84564 h -0.0251 l -1.004,3.05117 h 2.02106 z m 1.15535,3.49003 h -2.32269 l -0.48966,1.44392 c -0.23847,0.70273 -0.36406,1.24284 0.38947,1.25554 v 0.21343 h -1.85808 v -0.21343 c 0.67769,-0.10055 0.84067,-0.46497 1.0668,-1.12995 l 1.98367,-5.92561 h 0.74083 l 2.08386,6.18949 c 0.21343,0.66498 0.38947,0.86607 1.02905,0.86607 v 0.21343 h -2.53541 v -0.21343 c 0.4893,0 0.72813,-0.21379 0.5648,-0.70344 z" />
      <path
         inkscape:connector-curvature="0"
         id="path3742"
         style="fill:#1e5aaa;fill-opacity:1;fill-rule:nonzero;stroke:none;stroke-width:0.35277778"
         d="m 259.36712,183.40746 c 0,0.48966 0.15099,0.62724 0.74083,0.62724 v 0.21378 h -2.34773 v -0.21378 c 0.67804,0 0.75353,-0.17533 0.75353,-0.85337 v -2.42253 c 0,-0.65334 -0.16334,-0.72848 -0.91652,-0.72848 v -0.21343 l 1.55646,-0.13794 h 0.21343 v 0.96661 c 0.82832,-0.71578 1.21779,-0.96661 1.51941,-0.96661 0.25083,0 0.5895,0.15029 0.81563,0.35137 l -0.33867,0.79093 c -0.36407,-0.20073 -0.75318,-0.38912 -1.05481,-0.38912 -0.28822,0 -0.53975,0.15064 -0.94156,0.5394 z" />
      <path
         inkscape:connector-curvature="0"
         id="path3746"
         style="fill:#1e5aaa;fill-opacity:1;fill-rule:nonzero;stroke:none;stroke-width:0.35277778"
         d="m 265.83195,181.24811 h -0.21378 c -0.18839,-0.80363 -0.75283,-1.31868 -1.49402,-1.31868 -0.87877,0 -1.49401,0.75388 -1.49401,1.84538 0,1.21814 0.76623,2.2352 1.67005,2.2352 0.5401,0 1.19274,-0.28928 1.657,-0.92887 v 0.32632 c -0.47696,0.65229 -1.15465,0.97896 -1.95863,0.97896 -1.31797,0 -2.23414,-0.91652 -2.23414,-2.24719 0,-1.36843 1.02906,-2.46028 2.29729,-2.46028 0.66534,0 1.02941,0.25048 1.25518,0.25048 0.11289,0 0.22614,-0.0871 0.30128,-0.25048 h 0.21378 z" />
      <path
         inkscape:connector-curvature="0"
         id="path3750"
         style="fill:#1e5aaa;fill-opacity:1;fill-rule:nonzero;stroke:none;stroke-width:0.35277778"
         d="m 270.9275,183.18137 c 0,0.67804 0.12524,0.85337 0.71543,0.85337 v 0.21378 h -2.30999 v -0.21378 c 0.6029,0 0.74084,-0.13794 0.74084,-0.71508 v -2.1971 c 0,-0.58985 -0.35172,-0.96696 -0.89147,-0.96696 -0.502,0 -0.86607,0.23883 -1.29328,0.84137 v 2.43522 c 0,0.46461 0.18873,0.60255 0.74118,0.60255 v 0.21378 h -2.38548 v -0.21378 c 0.66569,-0.0123 0.79093,-0.13794 0.79093,-0.85337 v -5.78767 c 0,-0.57715 -0.16334,-0.66499 -0.79093,-0.66499 v -0.21343 l 1.43122,-0.15099 h 0.21308 v 4.20582 c 0.56515,-0.65299 0.97966,-0.89147 1.55716,-0.89147 0.74048,0 1.48131,0.4893 1.48131,1.54446 z" />
    </g>
  </g>
</svg>
