<svg id="Layer_1" data-name="Layer 1" xmlns="http://www.w3.org/2000/svg" viewBox="0 0 300 300"><defs><style>.cls-1{fill:#00adee;}.cls-1,.cls-2,.cls-3{fill-rule:evenodd;}.cls-2{fill:#221f1f;}.cls-3{fill:#231f20;}</style></defs><path class="cls-1" d="M262.34,96.75c-1.26-12.8-13.12-19.84-33.4-19.84-3.14,0-6.49.17-10,.52-20.88,2.09-45.06,9.46-70.1,21.36l3.54,1.16c16.49-6.77,32.32-11,47.08-12.42A99.74,99.74,0,0,1,209.57,87c20.67,0,32.8,7.66,34.17,21.58.59,6-.93,12.69-4.52,19.93l9.1,3C258.43,118.27,263.27,106.26,262.34,96.75Z"/><path class="cls-1" d="M115.18,209.74c-4.48,1-8.89,1.72-13.1,2.23-1,.13-2,.24-2.93.33-3,.29-6.05.44-9,.44h-.35c-1.67,0-3.34-.06-5-.17-18.62-1.23-29.58-8.83-30.83-21.41-.69-6.92,1.53-14.82,6.61-23.5l-6.5-2.1c-11.73,14.35-17.39,27.36-16.36,37.65C39,216,51.06,223.09,71.78,223.09a106.67,106.67,0,0,0,11.72-.68l.62-.07c1.68-.19,3.35-.41,5-.65q8.37-1.24,16.6-3.28,6.27-1.56,12.46-3.47a269.62,269.62,0,0,0,29.73-11.24c3.24-1.44,6.54-3,9.83-4.57l-5.28-1.71-1.67.73a199.48,199.48,0,0,1-35.63,11.59"/><path class="cls-2" d="M125.44,180.46l13.23-28.29L150,180.46h10.86L145.07,141l13.44-27.5h-4.74l-10.68,22.44-9-22.44H123.36l13.34,33.67-15.9,33.34Z"/><path class="cls-3" d="M222.53,162.36a24.88,24.88,0,0,0-1.12-7h0l-.06-.2c0-.07,0-.13-.07-.19a39.35,39.35,0,0,0-4.07-8.19q-2.16-3.51-4.34-7c-2-3.27-4.13-7.06-4.3-12.13-.32-9.18,7.16-14.78,9.87-16.51l-.4-.74c-5,2.26-17.57,8.41-17,23.56a28.48,28.48,0,0,0,4.19,13.19c.89,1.48,2.83,4.62,3.94,6.42a24.43,24.43,0,0,1,3.5,7.1q.24.91.42,1.83a24.53,24.53,0,0,1,.53,6.32C213,179.6,201,188.76,191.71,192l.3.66c5.61-1,26.65-7,30.05-24.86h0c0-.27.08-.54.12-.81s.09-.54.12-.81c.07-.51.12-1,.15-1.55a2.11,2.11,0,0,0,0-.26c0-.64.06-1.3,0-2h0"/><path class="cls-2" d="M185.54,113.45h-9.23l0,67h9.25ZM81.41,158.82l7.36-28.24,6.86,28.24Zm12.71-45.37h-4.4l-3.14,11.06-15.12,56h4.28l4.77-18h16l4.29,18h10.74l-13.3-51.61S95.52,118.51,94.12,113.45Z"/></svg>