<svg version="1.1" id="Layer_1" xmlns:x="ns_extend;" xmlns:i="ns_ai;" xmlns:graph="ns_graphs;" xmlns="http://www.w3.org/2000/svg" xmlns:xlink="http://www.w3.org/1999/xlink" x="0px" y="0px" viewBox="0 0 161 49" style="enable-background:new 0 0 161 49;" xml:space="preserve">
 <style type="text/css">
  .st0{fill-rule:evenodd;clip-rule:evenodd;fill:#4B0050;}
 </style>
 <metadata>
  <sfw xmlns="ns_sfw;">
   <slices>
   </slices>
   <sliceSourceBounds bottomLeftOrigin="true" height="49" width="160.2" x="0" y="0">
   </sliceSourceBounds>
  </sfw>
 </metadata>
 <g id="Symbols">
  <g id="Nav_x2F_Desktop" transform="translate(0.000000, -17.000000)">
   <g id="Group_1_" transform="translate(-0.000000, 17.000000)">
    <g id="Group" transform="translate(0.000000, 0.000000)">
     <path id="Fill-1" class="st0" d="M65.2,30c-1.2,0.9-2.3,1.6-3.6,1.6c-2,0-3.2-1.4-3.2-3.7c0-2.5,1.1-3.5,3-4.2l3.8-1.5V30z
					 M58.6,22.9c-3.3,1.2-6.1,2.8-6.1,6.6c0,3.5,2.4,5.7,6,5.7c3.2,0,5.5-1.9,6.9-3.8c0.4,2.4,2,3.9,4.4,3.9c2.1,0,3.8-0.8,5-2.3
					l-0.3-1c-0.5,0.2-1.1,0.4-1.8,0.4c-1.1,0-1.5-1-1.5-2.5V18.3c0-5.2-3.1-7.2-8.7-7.2c-4.9,0-8.7,1.9-8.7,5.6c0,3.2,2.5,4,5.7,2.8
					c-1.1-3.2-0.6-7,2.6-7c2.3,0,3.1,1.8,3.1,4.3v3.8L58.6,22.9L58.6,22.9z">
     </path>
     <path id="Fill-2" class="st0" d="M122.1,12.6c2.9,0,4,2.8,4,7h-8.8C117.6,15.6,119.2,12.6,122.1,12.6z M122.3,35.3
					c5.1,0,8.3-3,9.5-7.4l-0.7-0.4c-1.6,2.3-3.6,3.6-6.6,3.6c-4.3,0-7.5-3.7-7.3-9.9h14.4v-1c0-5.3-3.1-9.2-9-9.2
					c-6.1,0-10.9,5.2-10.9,12.8C111.7,30.6,115.9,35.3,122.3,35.3L122.3,35.3z">
     </path>
     <path id="Fill-3" class="st0" d="M110.4,33.4c-2-0.1-2.7-0.6-2.7-3V0l-8.8,2.4v0.9l2.7,1.4v25.7c0,2.4-0.7,2.9-2.7,3v1.5h11.6
					V33.4">
     </path>
     <path id="Fill-4" class="st0" d="M96.9,26.4h-1.4c-1.9,5-3.9,6.7-7.9,6.7h-3.7l12.6-20.5v-1.1H77.9l-0.6,8.1h1.4
					c1.7-4.6,2.7-6.4,6.5-6.4h4.3L76.6,33.9v1h19.5L96.9,26.4">
     </path>
     <path id="Fill-5" class="st0" d="M40.7,12.6c2.9,0,4,2.8,4,7h-8.8C36.2,15.6,37.8,12.6,40.7,12.6z M40.9,35.3
					c5.1,0,8.3-3,9.5-7.4l-0.7-0.4c-1.6,2.3-3.6,3.6-6.6,3.6c-4.3,0-7.5-3.7-7.3-9.9h14.4v-1c0-5.3-3.1-9.2-9-9.2
					c-6.1,0-10.9,5.2-10.9,12.8C30.2,30.6,34.5,35.3,40.9,35.3L40.9,35.3z">
     </path>
     <path id="Fill-6" class="st0" d="M11.6,16.3c1-0.9,2.4-1.5,3.9-1.5c4.2,0,6.1,3.8,6.1,9.2s-2.3,9.8-6,9.8c-2.7,0-4-1.7-4-5.1
					V16.3z M5.5,32.2c2.5,2.1,6.3,3.1,10.2,3.1c6.8,0,12.1-4.9,12.1-13.6c0-6.8-3.4-10.7-8.8-10.7c-3,0-5.8,1.6-7.4,3.4V0L2.8,2.4
					v0.9l2.7,1.4V32.2L5.5,32.2z">
     </path>
     <path id="Fill-7" class="st0" d="M134.9,15.3l9.2,19.6c-2.2,6.1-6.9,4.8-8.5,3.3c-2.3,1.6-1.6,4.7,2.2,4.7c3.5,0,6.1-2.9,7.9-7
					l8.4-20.2c0.8-1.9,2.2-2.3,3.5-2.7v-1.5h-8.4v1.5c2.6,0.3,3.2,1.5,2.3,3.5l-4.6,11.8l-5.3-12.7c-0.8-2.2,0.6-2.6,2.4-2.6v-1.5
					h-12v1.5C133.6,13.4,134.3,14,134.9,15.3">
     </path>
     <path id="Fill-8" class="st0" d="M159.2,46.5C107.7,41.1,56,40.4,4.5,44.3c-3.8,0.3-5.1,2.9-4.3,4.7c53.2-5.5,106.7-6,159.9-1.4
					C160.3,47,160.1,46.6,159.2,46.5">
     </path>
    </g>
   </g>
  </g>
 </g>
</svg>