<svg version="1.1" id="Layer_1" xmlns="http://www.w3.org/2000/svg" xmlns:xlink="http://www.w3.org/1999/xlink" x="0px" y="0px" viewBox="0 0 394.3 116.7" style="enable-background:new 0 0 394.3 116.7;" xml:space="preserve">
 <style type="text/css">
  .st0{fill:#00563F;}
 </style>
 <g>
  <g>
   <path class="st0" d="M120.6,93.4H143c17.2,0,23.2-8.6,23.2-19.4c0-7.4-3.4-14.9-11.3-17c5.6-2.5,9.2-8.2,9-14.4
			c0-10-5.3-18.2-21.4-18.2h-21.9V93.4z M126.8,60.4H144c11.3,0,15.3,4.3,15.3,13.5c0,6.6-2.5,13.6-15.4,13.6h-17V60.4z M157.1,42.7
			c0,5.9-2.6,12-13,12h-17.3V30.3h16.5C154.9,30.3,157,36.6,157.1,42.7 M173.5,70.5c0,13.2,3.9,23.9,19.3,23.9
			c5.2,0.2,10.4-0.8,15.2-2.8v-5.5c-4.8,2-10,2.9-15.2,2.7c-10.4,0-12.5-7.3-12.9-15.3h30.4v-3c0-13.3-1.9-23.9-17.5-23.9
			C177.3,46.5,173.5,57.2,173.5,70.5 M192.7,52.2c10.6,0,11,7.7,11,15.9h-23.9C180.2,59.9,182.1,52.2,192.7,52.2 M244.7,47
			c-1.8-0.3-3.7-0.5-5.5-0.5c-5.3,0-10.5,1.6-14.8,4.8l-1.4-3.9h-3.6v46h6.4V55.2c4.1-2.2,8.7-3.2,13.4-2.9c1.9,0,3.7,0.2,5.5,0.7
			L244.7,47z M287.5,47.5h-8.6l-20.8,20.6V24.5h-6.3v68.9h6.3V75.6l5.8-5.5L282,93.4h8l-22.2-27L287.5,47.5z M305.8,94.4v-5.2
			c-2.8,0-3.9-0.9-3.9-4.1V24.5h-6.2v59.8C295.7,91.7,299.1,94.4,305.8,94.4 M313.5,70.5c0,13.2,3.8,23.9,19.3,23.9
			c5.2,0.2,10.4-0.8,15.2-2.8v-5.5c-4.8,2-10,2.9-15.2,2.7c-10.4,0-12.5-7.3-12.9-15.3h30.3v-3c0-13.3-1.9-23.9-17.5-23.9
			C317.2,46.5,313.5,57.2,313.5,70.5 M332.8,52.2c10.6,0,11,7.7,11,15.9h-23.9C320.2,59.9,322.1,52.2,332.8,52.2 M353.5,47.5
			l17.5,44.8l-10.4,24.2h6.9l26.5-69h-7.4l-12.9,37.7l-12.9-37.7H353.5z">
   </path>
   <path class="st0" d="M127.2,54.3H144c10.5,0,12.6-6.3,12.6-11.6s-1.4-12.1-13.4-12.1h-16.1V54.3z M144,54.9h-17.5V30h16.8
			c12.6,0,14,7.3,14,12.7C157.3,48.1,155,54.9,144,54.9 M180.2,67.8h23.3c0-8.7-0.9-15.3-10.7-15.3
			C182.3,52.6,180.5,60.2,180.2,67.8L180.2,67.8z M204.1,68.5h-24.6v-0.3c0.3-8,2-16.2,13.2-16.2c11.1,0,11.4,9,11.4,16.2
			L204.1,68.5z M320.2,67.8h23.3c0-8.7-0.9-15.3-10.7-15.3C322.3,52.6,320.5,60.2,320.2,67.8 M344.2,68.5h-24.6v-0.3
			c0.3-8,2-16.2,13.2-16.2c11.1,0,11.4,9,11.4,16.2L344.2,68.5z M127.2,87.3h16.7C154.1,87.3,159,83,159,74
			c0-9.6-4.2-13.3-14.9-13.3h-17L127.2,87.3z M143.9,88h-17.4V60.1h17.5c11.1,0,15.6,4,15.6,13.9C159.6,83.4,154.5,88,143.9,88
			L143.9,88z M121,93.1h22c18.8,0,22.8-10.4,22.8-19.1c0-6.6-2.9-14.5-11.1-16.7l-0.9-0.2l0.9-0.3c5.5-2.5,9-8,8.8-14.1
			c0-14.8-11.5-17.9-21.1-17.9h-21.5L121,93.1z M143.1,93.7h-22.8V24.2h22.1c18,0,21.7,10.1,21.7,18.5c0.2,6-3.1,11.5-8.5,14.3
			c7.9,2.6,10.7,10.4,10.7,17.1C166.4,83,162.3,93.7,143.1,93.7L143.1,93.7z M219.8,93.1h5.8V55l0.2-0.1c4.1-2.2,8.8-3.2,13.5-3
			c1.8,0,3.5,0.2,5.2,0.6v-5.3c-1.7-0.3-3.5-0.4-5.2-0.4c-5.2,0-10.4,1.6-14.6,4.7l-0.3,0.3l-1.4-4.1h-3.1L219.8,93.1z M226.2,93.7
			h-7.1V47.1h4.1l1.3,3.7c4.3-3,9.4-4.6,14.6-4.5c1.9,0,3.7,0.2,5.6,0.5h0.2v6.7l-0.4-0.1c-1.8-0.5-3.6-0.8-5.4-0.7
			c-4.5-0.3-9,0.7-13,2.8L226.2,93.7z M282.2,93.1h7.2l-22-26.7l19.4-18.6H279l-21.2,21v-44h-5.6v68.3h5.6V75.5l6.2-5.8L282.2,93.1z
			 M290.7,93.7h-8.8l-18-23.2l-5.4,5.1v18h-6.9V24.2h6.9v43.1l20.3-20.1h9.6l-20.2,19.3L290.7,93.7z M192.7,46.9
			c-12.9,0-19,7.5-19,23.6c0,16.1,6,23.6,19,23.6c5.1,0.2,10.1-0.7,14.9-2.6v-4.8c-4.7,1.8-9.8,2.7-14.9,2.4
			c-11.1,0-12.9-8.3-13.2-15.5v-0.3h30.3v-2.6C209.9,58,208.6,46.9,192.7,46.9 M192.7,94.7c-17.6,0-19.6-13.8-19.6-24.2
			c0-21.7,11.2-24.2,19.6-24.2c16.4,0,17.8,12,17.8,24.2v3.2h-30.3c0.4,7.3,2.2,14.6,12.5,14.6c5.1,0.3,10.3-0.6,15-2.5l0.4-0.2v6.2
			l-0.2,0.1C203.2,93.9,198,94.8,192.7,94.7 M296,24.8v59.4c0,6.7,2.9,9.6,9.5,9.8v-4.6c-2.9,0-3.9-1.2-3.9-4.4V24.8H296z
			 M306.1,94.7h-0.3c-7.2,0-10.4-3.2-10.4-10.4V24.2h6.9V85c0,3,0.8,3.9,3.5,3.9h0.3V94.7z M332.8,46.9c-12.9,0-19,7.5-19,23.6
			c0,16.1,6,23.6,19,23.6c5.1,0.2,10.1-0.7,14.9-2.6v-4.8c-4.7,1.8-9.8,2.7-14.9,2.4c-11.1,0-12.8-8.3-13.2-15.5v-0.3H350v-2.6
			C349.9,58,348.6,46.9,332.8,46.9 M332.8,94.7c-17.6,0-19.6-13.8-19.6-24.2c0-21.7,11.2-24.2,19.6-24.2c16.4,0,17.8,12,17.8,24.2
			v3.2h-30.3c0.4,7.3,2.2,14.6,12.5,14.6c5.1,0.3,10.3-0.6,15-2.5l0.4-0.2v6.2l-0.2,0.1C343.2,93.9,338,94.8,332.8,94.7 M361,116.1
			h6.2l26.3-68.3h-6.7l-13.2,38.4l-13.1-38.4h-6.7l17.4,44.5L361,116.1z M367.6,116.7h-7.6l10.5-24.5L353,47.1h8v0.2l12.6,36.8
			l12.7-37h8l-0.2,0.4L367.6,116.7z">
   </path>
  </g>
  <rect x="93.2" y="17.2" class="st0" width="0.7" height="83.2">
  </rect>
  <polygon class="st0" points="34.8,54.8 26.6,48.7 42.9,48.7 	">
  </polygon>
  <g>
   <path class="st0" d="M44.2,49.8c-2,1.1-9.5,7-9.5,7c-0.3-0.2-7.5-5.9-9.5-6.9c-1.4-0.6-2.9-1-4.4-1.1c0,0.1,0.4,0.9,0.8,2.2
			c0.3,3.2,0.3,6.4,0.2,9.6c0,2,0.6,4,1.5,5.8c1.3,2.3,3.8,3.7,6.4,3.4H33c0.7,0.2,1.3,0.7,1.6,1.3c0.4-0.6,1-1.1,1.6-1.3h3.3
			c2.6,0.3,5.2-1.1,6.4-3.4c0.9-1.8,1.4-3.8,1.5-5.8c-0.1-3.2-0.1-6.4,0.2-9.6c0.2-0.8,0.5-1.5,0.8-2.2
			C47.1,48.9,45.6,49.2,44.2,49.8 M29.7,67.1c-2.3,0-5-1.9-4.9-6.4c0.2-2.6,0.2-5.1,0-7.7c-0.1-0.4-0.2-0.7-0.4-1.1
			c0.8,0,1.7,0.3,2.3,0.8c0.7,0.6,1.2,1.5,1.2,2.4v6.6c0,0,0.2,1.5,1.6,1.5c1,0.1,1.9-0.7,1.9-1.7c0-0.1,0-0.2,0-0.2
			c0-1.6-0.6-2.3-1.3-2.3c-0.5,0.1-1,0.4-1.4,0.8c-0.1-1,0.1-1.9,0.5-2.8c0.5-0.8,1.4-1.2,2.3-1.1c0.9,0,3.1,0.8,3.1,5
			C34.6,64.9,31.9,67,29.7,67.1 M29,61c0-0.3,0.3-0.6,0.7-0.6c0.4,0,0.6,0.3,0.6,0.7c0,0.3-0.3,0.6-0.6,0.6C29.3,61.7,29,61.4,29,61
			L29,61z M34.7,69.5c-0.6-0.8-1-1.7-1.1-2.6c0-0.5,0.8-1.8,1.1-1.8c0.6,0.4,1.1,1,1.2,1.7C35.8,67.8,35.4,68.7,34.7,69.5
			 M44.8,52.9c-0.2,2.6-0.2,5.1,0,7.7c0.1,4.6-2.6,6.4-4.9,6.4c-2.3,0-4.9-2.1-5-6.3c-0.1-4.2,2.2-5,3.1-5c0.9-0.1,1.8,0.3,2.3,1.1
			c0.5,0.9,0.7,1.9,0.5,2.9c-0.3-0.4-0.8-0.7-1.4-0.8c-0.8,0-1.3,0.7-1.3,2.3c-0.1,1,0.7,1.9,1.7,1.9c0.1,0,0.2,0,0.2,0
			c1.4,0,1.6-1.5,1.6-1.5V55c0-0.9,0.5-1.8,1.2-2.4c0.7-0.5,1.5-0.8,2.3-0.8C45,52.2,44.9,52.5,44.8,52.9 M40.5,61.1
			c0,0.4-0.3,0.7-0.6,0.7c-0.4,0-0.7-0.3-0.7-0.7c0-0.4,0.3-0.7,0.7-0.7C40.2,60.4,40.5,60.7,40.5,61.1L40.5,61.1z">
   </path>
   <path class="st0" d="M34.9,24c-8.7,0-17,3.2-23.5,9V0L0,0.1v61.1v0.9c1.7,19.2,18.7,33.4,37.9,31.7c19.2-1.7,33.4-18.7,31.7-37.9
			C68.1,37.9,53,24,34.9,24 M34.9,82.6c-12,0-22.1-9.1-23.5-21c-0.2-1.7-0.2-3.5,0-5.2c1.3-11.8,11.2-20.8,23-21
			c12.9-0.1,23.5,10,24.1,22.9c0.4,13.1-9.9,23.9-23,24.3C35.3,82.6,35.1,82.6,34.9,82.6">
   </path>
   <path class="st0" d="M121.3,93.3h22.3c17.1,0,23-8.6,23-19.3c0-7.3-3.4-14.8-11.2-16.9c5.6-2.5,9.2-8.1,9-14.3
			c0-10-5.3-18.1-21.3-18.1h-21.7V93.3z M127.5,60.5h17.2c11.2,0,15.2,4.3,15.2,13.5c0,6.6-2.5,13.5-15.4,13.5h-16.9V60.5z
			 M157.5,42.8c0,5.8-2.6,11.9-12.9,11.9h-17.1V30.5h16.4C155.5,30.5,157.5,36.8,157.5,42.8 M173.8,70.5c0,13.2,3.7,23.8,19.3,23.8
			c5.2,0.2,10.3-0.8,15.1-2.7V86c-4.8,2-9.9,2.8-15.1,2.6c-10.3,0-12.4-7.2-12.8-15.2h30.2v-2.9c0-13.2-1.9-23.8-17.4-23.8
			C177.7,46.6,173.8,57.3,173.8,70.5 M193.1,52.3c10.5,0,11,7.7,11,15.8h-23.8C180.6,59.9,182.5,52.3,193.1,52.3 M244.8,47.1
			c-1.8-0.3-3.6-0.5-5.5-0.5c-5.3,0-10.5,1.6-14.7,4.8l-1.4-3.9h-3.6v45.8h6.4V55.3c4.1-2.2,8.7-3.2,13.3-2.9c1.9,0,3.7,0.2,5.5,0.7
			V47.1z M287.5,47.6h-8.6l-20.7,20.5V24.7H252v68.6h6.2V75.6l5.8-5.5l18,23.2h8l-22.1-27L287.5,47.6z M305.5,94.2V89
			c-2.8,0-3.9-0.9-3.9-4.1V24.7h-6.2v59.5C295.4,91.5,298.9,94.2,305.5,94.2 M313.2,70.5c0,13.2,3.7,23.8,19.3,23.8
			c5.2,0.2,10.3-0.8,15.1-2.7V86c-4.8,2-9.9,2.8-15.1,2.6c-10.3,0-12.4-7.2-12.8-15.2h30.2v-2.9c0-13.2-1.9-23.8-17.4-23.8
			C317.1,46.6,313.2,57.3,313.2,70.5 M332.5,52.3c10.5,0,11,7.7,11,15.8h-23.7C320,59.9,321.9,52.3,332.5,52.3 M353,47.6l17.4,44.6
			l-10.3,24.1h6.9l26.4-68.6H386l-12.8,37.5l-12.8-37.5H353z">
   </path>
   <path class="st0" d="M128.1,54.2h16.6c8.2,0,12.4-3.9,12.4-11.4c0-10.5-7-11.8-13.1-11.8H128L128.1,54.2z M144.7,55.2H127V29.9
			h16.9c12.7,0,14.2,7.4,14.2,12.9C158,53.1,150.7,55.2,144.7,55.2 M180.9,67.6h22.7c0-8.4-1-14.8-10.5-14.8
			C183,52.9,181.2,59.8,180.9,67.6L180.9,67.6z M204.6,68.7h-24.9v-0.5c0.3-8.1,2.1-16.3,13.3-16.3c11.3,0,11.6,9.1,11.6,16.4
			L204.6,68.7z M320.2,67.6H343c0-8.4-1-14.8-10.5-14.8C322.4,52.9,320.6,59.8,320.2,67.6 M344.1,68.7h-24.9v-0.5
			c0.3-8.1,2.1-16.3,13.3-16.3s11.6,9.1,11.6,16.4L344.1,68.7z M128,87h16.4c13.3,0,14.9-7.4,14.9-13c0-9.4-4.1-13-14.7-13H128V87z
			 M144.4,88.1h-17.4V60h17.6c11.2,0,15.7,4.1,15.7,14.1C160.3,83.5,155.1,88.1,144.4,88.1 M121.8,92.8h21.8
			c18.5,0,22.4-10.2,22.4-18.8c0-6.5-2.9-14.3-10.9-16.4l-1.5-0.4l1.4-0.6c5.4-2.4,8.8-7.9,8.7-13.8c0-11.6-7.2-17.6-20.8-17.6
			h-21.2L121.8,92.8z M143.6,93.9h-22.9V24.2H143c18.1,0,21.9,10.1,21.9,18.6c0.2,5.9-3,11.3-8.1,14.2c7.7,2.7,10.4,10.5,10.4,17
			C167.1,83.1,163,93.9,143.6,93.9 M220.2,92.8h5.4V55l0.3-0.2c4.1-2.2,8.8-3.3,13.5-3c1.7,0,3.3,0.2,5,0.6v-4.8
			c-1.6-0.2-3.3-0.4-5-0.4c-5.2,0-10.2,1.6-14.4,4.6l-0.6,0.4l-1.5-4.2h-2.7L220.2,92.8z M226.6,93.9h-7.5V47.1h4.5l1.3,3.5
			c4.3-2.9,9.3-4.5,14.5-4.5c1.9,0,3.7,0.2,5.6,0.5h0.4v7.1l-0.7-0.2c-1.7-0.5-3.5-0.7-5.3-0.7c-4.4-0.2-8.8,0.7-12.7,2.7V93.9z
			 M282.2,92.8h6.6l-21.7-26.4l19.1-18.3h-7.1l-21.4,21.2V25.2h-5.2v67.5h5.2V75.4l6.3-6L282.2,92.8z M291,93.9h-9.4l-17.8-23
			l-5.2,4.9v18.1h-7.3V24.2h7.3v42.6l19.9-19.8h10.1l-20.3,19.4L291,93.9z M193.1,47.2c-12.9,0-18.7,7.2-18.7,23.3
			c0,16.1,5.8,23.3,18.7,23.3c5,0.2,10-0.7,14.6-2.6v-4.3c-4.7,1.8-9.6,2.5-14.6,2.3c-11.2,0-13-8.4-13.3-15.7v-0.5H210v-2.4
			C210,58.2,208.7,47.2,193.1,47.2 M193.1,94.8c-17.7,0-19.7-13.9-19.7-24.3c0-10.4,2-24.3,19.7-24.3c16.5,0,17.9,12,17.9,24.3v3.5
			h-30.2c0.8,12.4,6.6,14.1,12.3,14.1c5.1,0.3,10.2-0.6,14.9-2.5l0.7-0.3v6.6l-0.3,0.1C203.6,94,198.4,94.9,193.1,94.8 M296.1,25.3
			v58.9c0,6.5,2.7,9.4,9,9.5v-4.2c-2.8-0.1-3.9-1.4-3.9-4.6V25.2L296.1,25.3z M306.1,94.8h-0.5c-7.2,0-10.6-3.4-10.6-10.6v-60h7.3
			v60.7c0,2.8,0.7,3.6,3.3,3.6h0.5V94.8z M332.5,47.2c-12.9,0-18.7,7.2-18.7,23.3c0,16.1,5.8,23.3,18.7,23.3c5,0.2,9.9-0.7,14.6-2.6
			v-4.3c-4.6,1.8-9.6,2.5-14.6,2.3c-11.2,0-13-8.4-13.3-15.7v-0.5h30.2v-2.4C349.4,58.2,348.1,47.2,332.5,47.2 M332.5,94.8
			c-17.7,0-19.8-13.9-19.8-24.3c0-10.4,2.1-24.3,19.8-24.3c16.5,0,17.9,12,17.9,24.3v3.5h-30.2C321,86.3,326.8,88,332.5,88
			c5.1,0.3,10.2-0.6,14.9-2.5l0.7-0.3v6.6l-0.3,0.1C343,94,337.8,94.9,332.5,94.8 M360.9,115.8h5.8l25.9-67.5h-6.2l-13.2,38.6
			l-13.2-38.6h-6.2l17.2,44.1v0.2L360.9,115.8z M367.4,116.7h-8l10.6-24.6l-17.6-45.1h8.4l12.4,36.4l12.4-36.4h8.5l-0.3,0.7
			L367.4,116.7z">
   </path>
  </g>
  <rect x="93.8" y="17.5" class="st0" width="1.2" height="82.8">
  </rect>
  <polygon class="st0" points="35.9,54.9 27.7,48.8 44,48.8 	">
  </polygon>
  <g>
   <path class="st0" d="M45.3,49.8c-1.9,1-9.4,6.8-9.4,6.8c-0.3-0.2-7.5-5.9-9.5-6.9c-1.4-0.6-2.9-1-4.4-1.1c0.3,0.7,0.6,1.4,0.8,2.2
			c0.3,3.2,0.3,6.4,0.2,9.6c0,2,0.6,4,1.5,5.8c1.3,2.3,3.8,3.7,6.4,3.4h3.3c0.7,0.2,1.3,0.7,1.6,1.3c0.4-0.6,0.9-1,1.6-1.3h3.3
			c2.6,0.3,5.1-1.1,6.4-3.4c0.9-1.8,1.4-3.8,1.4-5.8c-0.1-3.2-0.1-6.4,0.2-9.6c0.4-1.3,0.8-2.1,0.8-2.2
			C48.1,48.8,46.7,49.2,45.3,49.8 M30.8,67.1c-2.3,0-5-1.9-4.9-6.4c0.2-2.6,0.2-5.1,0-7.7c-0.1-0.4-0.2-0.7-0.4-1.1
			c0.8,0,1.6,0.3,2.3,0.8c0.8,0.6,1.2,1.4,1.3,2.4v6.6c0,0,0.2,1.5,1.6,1.5c1,0.1,1.9-0.7,1.9-1.6c0-0.1,0-0.2,0-0.3
			c0-1.6-0.6-2.3-1.3-2.3c-0.6,0.1-1,0.4-1.4,0.8c-0.1-1,0.1-1.9,0.5-2.8c0.5-0.8,1.4-1.2,2.3-1.1c0.9,0,3.1,0.8,3.1,5
			C35.7,65,33.1,67,30.8,67.1 M30.1,61.1c0-0.4,0.3-0.6,0.6-0.6c0.4,0,0.6,0.3,0.6,0.6v0c0,0.4-0.3,0.6-0.6,0.6
			C30.4,61.7,30.1,61.4,30.1,61.1 M35.8,69.5c-0.6-0.8-0.9-1.6-1.1-2.5c0-0.5,0.8-1.8,1.1-1.8c0.6,0.4,1.1,1,1.2,1.8
			C36.9,67.8,36.5,68.7,35.8,69.5 M45.9,53c-0.2,2.6-0.2,5.1,0,7.7c0.1,4.6-2.6,6.4-4.9,6.4c-2.3,0-4.9-2.1-5-6.3
			c-0.1-4.2,2.2-4.9,3-4.9c0.9-0.1,1.8,0.3,2.3,1.1c0.4,0.8,0.6,1.8,0.5,2.7c-0.3-0.4-0.8-0.7-1.4-0.8c-0.8,0-1.3,0.7-1.3,2.3
			c-0.1,1,0.7,1.9,1.7,1.9c0.1,0,0.2,0,0.2,0c1.4,0,1.6-1.5,1.6-1.5v-6.6c0-0.9,0.5-1.8,1.2-2.4c0.7-0.5,1.5-0.8,2.3-0.8
			C46.1,52.3,46,52.7,45.9,53 M41.6,61.1c0.1,0.4-0.2,0.7-0.5,0.8c-0.4,0.1-0.7-0.2-0.8-0.5c0-0.1,0-0.1,0-0.2
			c-0.1-0.4,0.2-0.7,0.5-0.8c0.4-0.1,0.7,0.2,0.8,0.5C41.6,61,41.6,61,41.6,61.1">
   </path>
   <path class="st0" d="M36.1,24.2c-8.6,0-16.9,3.2-23.3,9V0.3L1.2,0.4v60.8v0.8C3,81.2,19.9,95.3,39,93.5
			c19.1-1.8,33.2-18.7,31.4-37.8C68.8,37.9,53.8,24.3,36,24.2 M36,82.5c-12,0-22-9-23.3-20.9c-0.1-0.9-0.2-1.7-0.2-2.6
			c0-12.8,10.3-23.3,23.2-23.5c13-0.1,23.6,10.3,23.7,23.3C59.5,71.8,49.1,82.4,36,82.5">
   </path>
  </g>
 </g>
</svg>