<svg width="1888" height="633" xmlns="http://www.w3.org/2000/svg" xmlns:xlink="http://www.w3.org/1999/xlink" xml:space="preserve" overflow="hidden"><g transform="translate(-655 -1599)"><g><path d="M1803.89 2143.16 2108 2142.52 2108 2230 1652 2230 1955.63 1687 1717.07 1687 1717.07 1600 2108 1600 1803.89 2143.16Z" fill="#1F1F20" fill-rule="evenodd" fill-opacity="1"/><path d="M1297.48 1906.1C1296.84 1908.8 1297.32 1911.49 1298.59 1913.87L1309.23 1932.76C1310.5 1934.98 1309.7 1937.84 1307.64 1939.26L1290.49 1950.21C1289.38 1951.01 1287.95 1951.16 1286.52 1950.85 1285.25 1950.53 1284.14 1949.58 1283.35 1948.47L1265.41 1914.67C1264.93 1913.87 1264.77 1913.08 1264.77 1912.13L1267.31 1866.9C1267.31 1865.32 1268.26 1863.73 1269.69 1862.94L1323.83 1830.72C1325.42 1829.77 1326.85 1828.34 1327.64 1826.76L1413.22 1687.28 1153 1686.64 1153 1600 1565 1600 1430.52 1829.3 1307.16 1882.46C1303.99 1883.72 1301.61 1886.58 1300.97 1889.91L1297.16 1906.26 1297.48 1906.1Z" fill="#00FF00" fill-rule="evenodd" fill-opacity="1"/><path d="M1417.58 1997.71 1399.89 2008 1392.35 1988.74C1391.43 1986.29 1392.35 1983.35 1394.66 1982.21L1407.89 1975.51C1409.12 1974.86 1410.5 1974.86 1411.73 1975.35 1412.96 1975.84 1413.88 1976.82 1414.35 1978.12L1414.96 1979.76 1416.04 1982.21 1419.57 1991.02C1420.65 1993.47 1419.57 1996.25 1417.58 1997.55L1417.58 1997.71Z" fill="#00FF00" fill-rule="evenodd" fill-opacity="1"/><path d="M1395.84 2013.99 1373.31 2024.52C1372.19 2024.99 1371.07 2025.15 1369.95 2024.83L1361.48 2004.11 1358.12 1995.98C1357.8 1995.19 1358.12 1994.07 1358.92 1993.75L1381.46 1983.07C1381.46 1983.07 1382.58 1982.91 1382.9 1983.07 1383.21 1983.07 1383.69 1983.39 1383.85 1984.03L1386.73 1990.88 1394.72 2010.33 1395.68 2012.72 1396 2013.36C1396 2013.36 1396 2013.99 1395.84 2014.15L1395.84 2013.99Z" fill="#00FF00" fill-rule="evenodd" fill-opacity="1"/><path d="M1566 2142.9 1566 2230 1089 2230 1245.99 1972.67C1246.78 1971.24 1247.26 1969.65 1247.42 1968.05L1252.02 1896.24C1252.02 1894.96 1252.66 1893.69 1253.61 1892.89L1261.23 1886.05 1259.8 1912.16C1259.8 1914.23 1260.12 1916.14 1261.07 1917.89L1279.01 1951.81C1280.44 1954.52 1282.97 1956.43 1285.83 1957.22 1286.78 1957.54 1287.58 1957.54 1288.53 1957.54 1290.59 1957.54 1292.66 1956.91 1294.4 1955.79L1311.55 1944.8C1316.31 1941.62 1317.9 1935.41 1315.04 1930.31L1304.4 1911.36C1303.77 1910.25 1303.61 1908.98 1303.93 1907.86L1307.74 1891.46C1308.06 1889.87 1309.17 1888.75 1310.59 1887.96L1434.73 1834.29 1435.04 1834.29 1439.33 1832.38C1440.76 1831.75 1442.5 1831.9 1443.77 1832.86 1445.04 1833.66 1446 1835.09 1446 1836.68L1447.27 1856.27C1447.27 1858.34 1446.16 1860.25 1444.25 1861.04L1443.3 1861.36 1442.82 1861.36 1441.39 1862.16 1376.95 1890.98 1379.33 1896.4 1441.87 1868.53 1444.09 1891.94C1444.09 1892.89 1444.09 1894.01 1443.46 1894.8L1442.19 1896.87 1393.93 1919.8 1396.47 1925.22 1443.93 1902.61C1443.93 1902.61 1445.2 1904.36 1445.2 1905.47L1446.95 1926.33C1447.11 1928.4 1446 1930.31 1443.93 1931.27L1440.28 1933.34 1440.12 1933.34 1409.01 1948.47 1411.55 1953.88 1438.85 1940.66 1440.44 1962.64C1440.6 1964.55 1439.65 1966.3 1437.9 1967.26L1420.6 1977.13 1420.28 1976.17C1419.17 1973.47 1416.95 1971.24 1414.25 1970.12 1411.39 1969.01 1408.38 1969.17 1405.68 1970.44L1392.03 1976.97C1390.44 1977.77 1389.17 1978.72 1388.22 1980 1387.42 1978.88 1386.15 1978.09 1384.88 1977.61 1382.98 1976.81 1380.76 1976.97 1378.85 1977.93L1356.47 1988.59C1352.98 1990.19 1351.39 1994.17 1352.5 1997.67 1350.6 1997.51 1348.69 1997.83 1346.95 1998.63L1332.66 2005.47C1327.42 2008.02 1325.2 2014.07 1327.26 2019.49L1329.64 2025.54C1327.74 2025.38 1325.83 2025.7 1324.09 2026.65L1308.06 2034.3C1302.82 2036.68 1300.59 2042.9 1302.66 2048.31L1303.77 2051.02 1240.43 2143.06 1565.84 2143.06 1566 2142.9Z" fill="#00FF00" fill-rule="evenodd" fill-opacity="1"/><path d="M1364 2027.88C1363.53 2029.14 1362.75 2030.09 1361.65 2030.56L1341.91 2041 1338.47 2032.78 1332.36 2017.6C1331.42 2015.23 1332.36 2012.38 1334.71 2011.27L1348.81 2004.47C1350.06 2003.84 1351.31 2003.84 1352.57 2004.47 1353.82 2004.95 1354.76 2005.9 1355.23 2007.16L1363.69 2028.03 1364 2027.88Z" fill="#00FF00" fill-rule="evenodd" fill-opacity="1"/><path d="M1338 2046.19 1319.18 2056.43C1316.83 2057.71 1313.85 2056.75 1312.59 2054.35L1309.93 2049.39 1308.36 2045.55C1307.42 2043.16 1308.36 2040.28 1310.71 2039.16L1326.55 2031.48C1327.81 2030.84 1329.22 2030.84 1330.47 2031.48 1331.73 2031.96 1332.67 2032.92 1333.14 2034.2L1333.14 2034.52 1337.69 2045.72 1337.69 2045.88 1338 2046.19Z" fill="#00FF00" fill-rule="evenodd" fill-opacity="1"/><path d="M742.829 1686.96 742.829 1839.57 981.412 1839.57 981.412 1925.89 742.829 1925.89 742.829 2143.04 1003 2143.04 1003 2230 656 2230 656 1600 1003 1600 1003 1686.96 742.829 1686.96Z" fill="#00FF00" fill-rule="evenodd" fill-opacity="1"/><path d="M2281.06 1686.98 2281.06 1838.99 2518.43 1838.99 2518.43 1925.81 2281.06 1925.81 2281.06 2143.02 2540 2143.02 2540 2230 2194 2230 2194 1600 2540 1600 2540 1686.98 2281.06 1686.98Z" fill="#1F1F20" fill-rule="evenodd" fill-opacity="1"/></g></g></svg>