<?xml version="1.0" encoding="UTF-8" standalone="no"?>
<!-- Created with Inkscape (http://www.inkscape.org/) -->
<svg
   xmlns:svg="http://www.w3.org/2000/svg"
   xmlns="http://www.w3.org/2000/svg"
   version="1.0"
   width="500"
   height="207.28999"
   id="svg2">
  <defs
     id="defs4">
    <clipPath
       id="clipPath2542">
      <path
         d="M 380.023,752.706 L 531.022,752.706 L 531.022,692.706 L 380.023,692.706 L 380.023,752.706 z"
         id="path2544" />
    </clipPath>
  </defs>
  <g
     transform="translate(-145.62562,-99.038063)"
     id="layer1">
    <g
       transform="matrix(2.5430632,0,0,2.5430632,-214.70954,-431.82411)"
       id="g2760">
      <g
         transform="matrix(1.25,0,0,-1.25,146.74937,257.45641)"
         id="g2414">
        <path
           d="M 0,0 C 2.027,0.324 2.148,1.095 2.148,3.69 L 2.148,20.636 C 2.148,22.46 2.148,24.041 0,24.325 L 0,24.974 C 0.486,24.933 1.013,24.852 1.541,24.812 C 2.067,24.812 2.595,24.771 3.041,24.771 L 13.581,24.771 C 14.635,24.771 15.771,24.893 16.744,25.501 L 17.352,25.501 C 17.473,23.312 17.514,22.987 18,20.23 L 17.108,20.028 C 15.852,22.339 15.852,23.231 9.041,23.231 L 4.743,23.231 L 4.743,13.744 L 9.041,13.744 C 14.352,13.744 14.23,14.636 14.798,16.582 L 15.73,16.582 C 15.568,15.366 15.446,14.108 15.446,12.893 C 15.446,11.798 15.608,10.703 15.73,9.649 L 14.798,9.649 C 14.352,11.757 14.554,12.203 9.041,12.203 L 4.743,12.203 L 4.743,3.69 C 4.743,1.014 5.595,0.243 8.392,0 L 8.392,-0.648 C 6.811,-0.567 5.189,-0.446 3.608,-0.446 C 2.392,-0.446 1.175,-0.567 0,-0.648 L 0,0"
           id="path2416"
           style="fill:#231f20;fill-opacity:1;fill-rule:nonzero;stroke:none" />
      </g>
      <g
         transform="matrix(1.25,0,0,-1.25,170.87687,257.81266)"
         id="g2418">
        <path
           d="M 0,0 C 0,1.338 1.5,3.689 4.256,10.825 L 7.095,18.204 C 7.784,20.028 8.757,22.461 8.757,23.19 C 8.757,24.326 7.784,24.447 7.095,24.609 L 7.095,25.258 C 8.108,25.177 9.081,25.055 10.095,25.055 C 10.906,25.055 11.676,25.217 12.446,25.258 L 19.136,6.812 C 21.041,1.743 21.243,0.608 23.149,0.284 L 23.149,-0.364 C 21.973,-0.283 20.798,-0.162 19.622,-0.162 C 18.243,-0.162 16.825,-0.283 15.446,-0.364 L 15.446,0.284 C 16.743,0.527 17.919,0.568 17.919,1.865 C 17.919,2.757 17.595,3.568 17.271,4.42 L 15.122,10.542 L 6,10.542 L 4.054,5.271 C 3.648,4.217 3.203,2.96 3.203,2.23 C 3.203,1.096 4.216,0.446 5.716,0.284 L 5.716,-0.364 C 4.662,-0.283 3.608,-0.162 2.513,-0.162 C 1.662,-0.162 0.851,-0.283 0,-0.364 L 0,0 z M 6.567,12.082 L 14.595,12.082 L 10.703,23.15 L 10.622,23.15 L 6.567,12.082"
           id="path2420"
           style="fill:#231f20;fill-opacity:1;fill-rule:nonzero;stroke:none" />
      </g>
      <g
         transform="matrix(1.25,0,0,-1.25,203.18187,257.45641)"
         id="g2422">
        <path
           d="M 0,0 C 1.216,0.203 2.23,0.365 2.23,3.69 L 2.23,20.636 C 2.23,23.92 1.216,24.122 0,24.325 L 0,24.974 C 1.216,24.893 2.473,24.771 3.649,24.771 C 4.784,24.771 5.919,24.893 7.054,24.974 L 7.054,24.325 C 5.878,24.122 4.825,23.92 4.825,20.636 L 4.825,3.69 C 4.825,0.365 5.878,0.203 7.054,0 L 7.054,-0.648 C 5.919,-0.567 4.784,-0.446 3.649,-0.446 C 2.473,-0.446 1.216,-0.567 0,-0.648 L 0,0"
           id="path2424"
           style="fill:#231f20;fill-opacity:1;fill-rule:nonzero;stroke:none" />
      </g>
      <g
         transform="matrix(1.25,0,0,-1.25,220.55312,231.66266)"
         id="g2426">
        <path
           d="M 0,0 C 0,2.514 -0.121,3.203 -2.229,3.689 L -2.229,4.338 C -1.581,4.338 -0.932,4.257 -0.284,4.216 C 0.365,4.176 1.054,4.135 1.703,4.135 C 2.635,4.135 3.527,4.216 4.419,4.338 C 5.311,4.419 6.203,4.5 7.136,4.5 C 12.082,4.5 16.217,3.203 16.217,-1.622 C 16.217,-5.878 12.406,-6.77 10.947,-7.135 L 10.947,-7.216 C 16.906,-9.77 16.298,-17.474 20.149,-20.149 C 20.555,-20.352 21.042,-20.555 21.487,-20.636 L 21.487,-21.284 C 20.92,-21.243 19.623,-21.082 19.096,-21.082 C 18.609,-21.082 17.717,-21.243 17.068,-21.284 C 16.501,-20.879 16.339,-20.27 16.136,-19.744 L 14.758,-16.257 C 11.717,-8.311 9.244,-7.905 5.717,-7.905 L 2.595,-7.905 L 2.595,-16.946 C 2.595,-18.812 2.595,-20.27 4.906,-20.636 L 4.906,-21.284 C 3.73,-21.203 2.555,-21.082 1.379,-21.082 C 0.203,-21.082 -0.973,-21.203 -2.148,-21.284 L -2.148,-20.636 C 0,-20.149 0,-19.014 0,-16.946 L 0,0 z M 5.717,-6.365 C 11.23,-6.365 13.298,-4.5 13.298,-1.703 C 13.298,1.581 10.379,2.959 7.136,2.959 C 5.595,2.959 4.095,2.879 2.595,2.433 L 2.595,-6.365 L 5.717,-6.365"
           id="path2428"
           style="fill:#231f20;fill-opacity:1;fill-rule:nonzero;stroke:none" />
      </g>
      <g
         transform="matrix(1.25,0,0,-1.25,249.57187,257.45641)"
         id="g2430">
        <path
           d="M 0,0 C 2.027,0.324 2.148,1.095 2.148,3.69 L 2.148,20.636 C 2.148,22.46 2.148,24.041 0,24.325 L 0,24.974 C 0.487,24.933 1.014,24.852 1.541,24.812 C 2.068,24.812 2.595,24.771 3.041,24.771 L 13.582,24.771 C 14.636,24.771 15.771,24.893 16.744,25.501 L 17.352,25.501 C 17.473,23.312 17.514,22.987 18.001,20.23 L 17.109,20.028 C 15.852,22.339 15.852,23.231 9.041,23.231 L 4.743,23.231 L 4.743,13.744 L 9.041,13.744 C 14.353,13.744 14.23,14.636 14.798,16.582 L 15.73,16.582 C 15.568,15.366 15.446,14.108 15.446,12.893 C 15.446,11.798 15.608,10.703 15.73,9.649 L 14.798,9.649 C 14.353,11.757 14.555,12.203 9.041,12.203 L 4.743,12.203 L 4.743,3.69 C 4.743,1.014 5.595,0.243 8.393,0 L 8.393,-0.648 C 6.812,-0.567 5.189,-0.446 3.608,-0.446 C 2.392,-0.446 1.176,-0.567 0,-0.648 L 0,0"
           id="path2432"
           style="fill:#231f20;fill-opacity:1;fill-rule:nonzero;stroke:none" />
      </g>
      <g
         transform="matrix(1.25,0,0,-1.25,273.01312,257.81266)"
         id="g2434">
        <path
           d="M 0,0 C 0,1.338 1.5,3.689 4.257,10.825 L 7.095,18.204 C 7.784,20.028 8.757,22.461 8.757,23.19 C 8.757,24.326 7.784,24.447 7.095,24.609 L 7.095,25.258 C 8.109,25.177 9.082,25.055 10.095,25.055 C 10.906,25.055 11.675,25.217 12.446,25.258 L 19.135,6.812 C 21.041,1.743 21.244,0.608 23.149,0.284 L 23.149,-0.364 C 21.974,-0.283 20.798,-0.162 19.623,-0.162 C 18.244,-0.162 16.825,-0.283 15.446,-0.364 L 15.446,0.284 C 16.744,0.527 17.92,0.568 17.92,1.865 C 17.92,2.757 17.595,3.568 17.271,4.42 L 15.123,10.542 L 6.001,10.542 L 4.054,5.271 C 3.649,4.217 3.203,2.96 3.203,2.23 C 3.203,1.096 4.216,0.446 5.716,0.284 L 5.716,-0.364 C 4.662,-0.283 3.608,-0.162 2.513,-0.162 C 1.663,-0.162 0.851,-0.283 0,-0.364 L 0,0 z M 6.568,12.082 L 14.595,12.082 L 10.703,23.15 L 10.623,23.15 L 6.568,12.082"
           id="path2436"
           style="fill:#231f20;fill-opacity:1;fill-rule:nonzero;stroke:none" />
      </g>
      <g
         transform="matrix(1.25,0,0,-1.25,301.70312,257.45641)"
         id="g2438">
        <path
           d="M 0,0 C 1.743,0.486 2.351,1.095 7.662,7.622 L 11.432,12.284 L 6.77,18.487 C 3.445,22.785 3,23.717 0.648,24.325 L 0.648,24.974 C 2.026,24.893 3.445,24.771 4.824,24.771 C 6.121,24.771 7.419,24.893 8.716,24.974 L 8.716,24.325 C 7.662,24.325 6.729,24.001 6.729,23.15 C 6.729,22.663 7.743,21.325 8.919,19.744 L 12.972,14.23 L 17.027,19.42 C 18.365,21.163 19.419,22.379 19.419,23.231 C 19.419,24.122 18.365,24.325 17.636,24.325 L 17.636,24.974 C 18.446,24.893 19.217,24.771 20.027,24.771 C 21.041,24.771 22.014,24.893 23.028,24.974 C 22.663,23.717 21.932,22.825 20.96,21.568 L 13.905,12.933 L 19.501,5.635 C 22.946,1.459 23.473,0.243 25.501,0 L 25.501,-0.648 C 24.284,-0.567 23.028,-0.446 21.77,-0.446 C 20.351,-0.446 18.933,-0.567 17.513,-0.648 L 17.513,0 C 18.648,0 19.298,0.446 19.298,1.136 C 19.298,2.19 17.92,3.405 17.636,3.974 L 12.365,10.946 L 7.055,4.055 C 6.446,3.243 5.636,2.027 5.636,1.338 C 5.636,0.771 6.121,0.081 7.419,0 L 7.419,-0.648 C 6.162,-0.567 4.905,-0.446 3.648,-0.446 C 2.432,-0.446 1.216,-0.567 0,-0.648 L 0,0"
           id="path2440"
           style="fill:#231f20;fill-opacity:1;fill-rule:nonzero;stroke:none" />
      </g>
      <g
         transform="matrix(1.25,0,0,-1.25,147.92937,275.19141)"
         id="g2442">
        <path
           d="M 0,0 C 0.537,0.086 0.569,0.29 0.569,0.978 L 0.569,5.468 C 0.569,5.951 0.569,6.37 0,6.445 L 0,6.618 C 0.129,6.607 0.269,6.586 0.409,6.575 C 0.548,6.575 0.688,6.563 0.806,6.563 L 3.599,6.563 C 3.879,6.563 4.18,6.596 4.437,6.758 L 4.599,6.758 C 4.631,6.177 4.641,6.092 4.77,5.36 L 4.534,5.307 C 4.201,5.919 4.201,6.156 2.396,6.156 L 1.257,6.156 L 1.257,3.642 L 2.396,3.642 C 3.803,3.642 3.771,3.878 3.921,4.395 L 4.168,4.395 C 4.125,4.071 4.093,3.738 4.093,3.416 C 4.093,3.126 4.136,2.836 4.168,2.557 L 3.921,2.557 C 3.803,3.115 3.857,3.233 2.396,3.233 L 1.257,3.233 L 1.257,0.978 C 1.257,0.269 1.483,0.064 2.224,0 L 2.224,-0.172 C 1.805,-0.15 1.375,-0.118 0.957,-0.118 C 0.634,-0.118 0.312,-0.15 0,-0.172 L 0,0"
           id="path2444"
           style="fill:#231f20;fill-opacity:1;fill-rule:nonzero;stroke:none" />
      </g>
      <g
         transform="matrix(1.25,0,0,-1.25,155.12562,275.19141)"
         id="g2446">
        <path
           d="M 0,0 C 0.322,0.054 0.591,0.097 0.591,0.978 L 0.591,5.468 C 0.591,6.338 0.322,6.393 0,6.445 L 0,6.618 C 0.322,6.596 0.655,6.563 0.967,6.563 C 1.268,6.563 1.568,6.596 1.869,6.618 L 1.869,6.445 C 1.558,6.393 1.278,6.338 1.278,5.468 L 1.278,0.978 C 1.278,0.097 1.558,0.054 1.869,0 L 1.869,-0.172 C 1.568,-0.15 1.268,-0.118 0.967,-0.118 C 0.655,-0.118 0.322,-0.15 0,-0.172 L 0,0"
           id="path2448"
           style="fill:#231f20;fill-opacity:1;fill-rule:nonzero;stroke:none" />
      </g>
      <g
         transform="matrix(1.25,0,0,-1.25,161.31312,275.40641)"
         id="g2450">
        <path
           d="M 0,0 C -0.204,0.021 -0.408,0.054 -0.623,0.054 C -0.849,0.054 -1.085,0.021 -1.321,0 C -1.321,0.602 -1.235,1.278 -1.235,2.353 L -1.225,4.975 C -1.225,6.371 -1.289,6.435 -1.815,6.617 L -1.815,6.79 C -1.59,6.779 -1.364,6.735 -1.139,6.735 C -0.902,6.735 -0.655,6.779 -0.408,6.79 L 3.373,1.515 L 3.395,1.515 L 3.406,4.694 C 3.406,6.284 3.406,6.5 2.6,6.617 L 2.6,6.79 C 2.847,6.779 3.094,6.735 3.352,6.735 C 3.545,6.735 3.739,6.779 3.933,6.79 C 3.921,6.585 3.857,5.92 3.857,4.351 L 3.836,2.997 C 3.836,1.3 3.89,0.397 3.89,0 L 3.61,0 C 3.191,0.623 2.75,1.235 2.31,1.848 L 0.87,3.889 C 0.333,4.63 -0.214,5.371 -0.752,6.091 L -0.773,6.091 L -0.795,3.771 C -0.806,3.147 -0.806,2.46 -0.806,1.934 C -0.806,0.204 -0.58,0.258 0,0.172 L 0,0"
           id="path2452"
           style="fill:#231f20;fill-opacity:1;fill-rule:nonzero;stroke:none" />
      </g>
      <g
         transform="matrix(1.25,0,0,-1.25,168.03812,275.28516)"
         id="g2454">
        <path
           d="M 0,0 C 0,0.354 0.397,0.978 1.128,2.868 L 1.88,4.823 C 2.063,5.307 2.32,5.951 2.32,6.145 C 2.32,6.445 2.063,6.478 1.88,6.52 L 1.88,6.693 C 2.148,6.671 2.407,6.639 2.675,6.639 C 2.89,6.639 3.094,6.682 3.298,6.693 L 5.071,1.805 C 5.576,0.462 5.63,0.161 6.134,0.075 L 6.134,-0.097 C 5.823,-0.075 5.511,-0.043 5.2,-0.043 C 4.834,-0.043 4.458,-0.075 4.093,-0.097 L 4.093,0.075 C 4.437,0.14 4.748,0.15 4.748,0.494 C 4.748,0.73 4.663,0.945 4.577,1.171 L 4.007,2.793 L 1.59,2.793 L 1.074,1.396 C 0.967,1.117 0.849,0.784 0.849,0.591 C 0.849,0.29 1.117,0.118 1.515,0.075 L 1.515,-0.097 C 1.235,-0.075 0.956,-0.043 0.666,-0.043 C 0.44,-0.043 0.226,-0.075 0,-0.097 L 0,0 z M 1.74,3.201 L 3.868,3.201 L 2.836,6.135 L 2.814,6.135 L 1.74,3.201"
           id="path2456"
           style="fill:#231f20;fill-opacity:1;fill-rule:nonzero;stroke:none" />
      </g>
      <g
         transform="matrix(1.25,0,0,-1.25,178.96562,275.40641)"
         id="g2458">
        <path
           d="M 0,0 C -0.204,0.021 -0.408,0.054 -0.623,0.054 C -0.849,0.054 -1.085,0.021 -1.322,0 C -1.322,0.602 -1.235,1.278 -1.235,2.353 L -1.225,4.975 C -1.225,6.371 -1.289,6.435 -1.816,6.617 L -1.816,6.79 C -1.59,6.779 -1.364,6.735 -1.139,6.735 C -0.903,6.735 -0.655,6.779 -0.408,6.79 L 3.373,1.515 L 3.395,1.515 L 3.406,4.694 C 3.406,6.284 3.406,6.5 2.6,6.617 L 2.6,6.79 C 2.847,6.779 3.094,6.735 3.352,6.735 C 3.545,6.735 3.739,6.779 3.932,6.79 C 3.921,6.585 3.857,5.92 3.857,4.351 L 3.835,2.997 C 3.835,1.3 3.889,0.397 3.889,0 L 3.61,0 C 3.191,0.623 2.75,1.235 2.31,1.848 L 0.87,3.889 C 0.333,4.63 -0.215,5.371 -0.753,6.091 L -0.774,6.091 L -0.795,3.771 C -0.806,3.147 -0.806,2.46 -0.806,1.934 C -0.806,0.204 -0.58,0.258 0,0.172 L 0,0"
           id="path2460"
           style="fill:#231f20;fill-opacity:1;fill-rule:nonzero;stroke:none" />
      </g>
      <g
         transform="matrix(1.25,0,0,-1.25,192.71312,273.82141)"
         id="g2462">
        <path
           d="M 0,0 C -0.236,-0.365 -0.87,-1.407 -2.321,-1.407 C -4.051,-1.407 -5.468,-0.097 -5.468,2.127 C -5.468,4.179 -4.029,5.662 -2.342,5.662 C -1.58,5.662 -1.085,5.425 -0.892,5.425 C -0.752,5.425 -0.698,5.49 -0.634,5.618 L -0.419,5.618 C -0.387,5.049 -0.226,4.47 -0.15,4.094 L -0.419,4.051 C -0.591,4.534 -1.042,5.199 -2.213,5.211 C -3.588,5.211 -4.695,4.169 -4.695,2.181 C -4.695,0.054 -3.588,-0.956 -2.235,-0.956 C -1.107,-0.956 -0.602,-0.258 -0.268,0.161 L 0,0"
           id="path2464"
           style="fill:#231f20;fill-opacity:1;fill-rule:nonzero;stroke:none" />
      </g>
      <g
         transform="matrix(1.25,0,0,-1.25,194.14687,275.19141)"
         id="g2466">
        <path
           d="M 0,0 C 0.322,0.054 0.591,0.097 0.591,0.978 L 0.591,5.468 C 0.591,6.338 0.322,6.393 0,6.445 L 0,6.618 C 0.322,6.596 0.655,6.563 0.967,6.563 C 1.268,6.563 1.568,6.596 1.87,6.618 L 1.87,6.445 C 1.558,6.393 1.279,6.338 1.279,5.468 L 1.279,0.978 C 1.279,0.097 1.558,0.054 1.87,0 L 1.87,-0.172 C 1.568,-0.15 1.268,-0.118 0.967,-0.118 C 0.655,-0.118 0.322,-0.15 0,-0.172 L 0,0"
           id="path2468"
           style="fill:#231f20;fill-opacity:1;fill-rule:nonzero;stroke:none" />
      </g>
      <g
         transform="matrix(1.25,0,0,-1.25,197.86437,275.28516)"
         id="g2470">
        <path
           d="M 0,0 C 0,0.354 0.397,0.978 1.128,2.868 L 1.88,4.823 C 2.063,5.307 2.321,5.951 2.321,6.145 C 2.321,6.445 2.063,6.478 1.88,6.52 L 1.88,6.693 C 2.148,6.671 2.407,6.639 2.675,6.639 C 2.89,6.639 3.094,6.682 3.298,6.693 L 5.071,1.805 C 5.576,0.462 5.63,0.161 6.135,0.075 L 6.135,-0.097 C 5.823,-0.075 5.512,-0.043 5.2,-0.043 C 4.835,-0.043 4.459,-0.075 4.093,-0.097 L 4.093,0.075 C 4.437,0.14 4.749,0.15 4.749,0.494 C 4.749,0.73 4.663,0.945 4.577,1.171 L 4.007,2.793 L 1.59,2.793 L 1.074,1.396 C 0.967,1.117 0.849,0.784 0.849,0.591 C 0.849,0.29 1.118,0.118 1.515,0.075 L 1.515,-0.097 C 1.236,-0.075 0.957,-0.043 0.667,-0.043 C 0.441,-0.043 0.226,-0.075 0,-0.097 L 0,0 z M 1.741,3.201 L 3.868,3.201 L 2.836,6.135 L 2.815,6.135 L 1.741,3.201"
           id="path2472"
           style="fill:#231f20;fill-opacity:1;fill-rule:nonzero;stroke:none" />
      </g>
      <g
         transform="matrix(1.25,0,0,-1.25,206.46937,275.19141)"
         id="g2474">
        <path
           d="M 0,0 C 0.505,0.075 0.602,0.376 0.602,0.978 L 0.602,5.436 C 0.602,6.338 0.333,6.393 0.011,6.445 L 0.011,6.618 C 0.333,6.596 0.644,6.563 0.956,6.563 C 1.257,6.563 1.579,6.596 1.88,6.618 L 1.88,6.445 C 1.568,6.393 1.289,6.338 1.289,5.436 L 1.289,0.29 L 2.761,0.29 C 3.717,0.29 4.351,0.419 4.566,1.364 L 4.824,1.321 C 4.706,0.784 4.577,0.247 4.512,-0.279 L 4.362,-0.279 C 4.222,-0.129 4.093,-0.118 3.782,-0.118 L 1.278,-0.118 C 0.849,-0.118 0.44,-0.161 0,-0.172 L 0,0"
           id="path2476"
           style="fill:#231f20;fill-opacity:1;fill-rule:nonzero;stroke:none" />
      </g>
      <g
         transform="matrix(1.25,0,0,-1.25,218.63187,273.96891)"
         id="g2478">
        <path
           d="M 0,0 C 0,-0.881 0.279,-0.924 0.591,-0.978 L 0.591,-1.149 C 0.29,-1.128 -0.011,-1.096 -0.312,-1.096 C -0.624,-1.096 -0.957,-1.128 -1.279,-1.149 L -1.279,-0.978 C -0.957,-0.924 -0.688,-0.881 -0.688,0 L -0.688,4.49 C -0.688,5.36 -0.957,5.415 -1.279,5.468 L -1.279,5.641 C -0.957,5.618 -0.624,5.586 -0.312,5.586 C -0.011,5.586 0.29,5.618 0.591,5.641 L 0.591,5.468 C 0.279,5.415 0,5.36 0,4.49 L 0,2.664 L 3.684,2.664 L 3.684,4.49 C 3.684,5.36 3.416,5.415 3.094,5.468 L 3.094,5.641 C 3.416,5.618 3.727,5.586 4.039,5.586 C 4.34,5.586 4.662,5.618 4.963,5.641 L 4.963,5.468 C 4.652,5.415 4.372,5.36 4.372,4.49 L 4.372,0 C 4.372,-0.881 4.652,-0.924 4.963,-0.978 L 4.963,-1.149 C 4.662,-1.128 4.34,-1.096 4.039,-1.096 C 3.727,-1.096 3.416,-1.128 3.094,-1.149 L 3.094,-0.978 C 3.416,-0.924 3.684,-0.881 3.684,0 L 3.684,2.256 L 0,2.256 L 0,0"
           id="path2480"
           style="fill:#231f20;fill-opacity:1;fill-rule:nonzero;stroke:none" />
      </g>
      <g
         transform="matrix(1.25,0,0,-1.25,226.41687,271.13641)"
         id="g2482">
        <path
           d="M 0,0 C 0,1.87 1.461,3.514 3.363,3.514 C 5.243,3.514 6.747,2.053 6.747,0 C 6.747,-1.998 5.275,-3.556 3.363,-3.556 C 1.697,-3.556 0,-2.363 0,0 z M 3.363,-3.104 C 4.759,-3.104 5.973,-1.966 5.973,0 C 5.973,1.87 4.791,3.063 3.363,3.063 C 1.987,3.063 0.773,1.815 0.773,0 C 0.773,-2.148 2.095,-3.104 3.363,-3.104"
           id="path2484"
           style="fill:#231f20;fill-opacity:1;fill-rule:nonzero;stroke:none" />
      </g>
      <g
         transform="matrix(1.25,0,0,-1.25,236.31187,275.19141)"
         id="g2486">
        <path
           d="M 0,0 C 0.505,0.075 0.602,0.376 0.602,0.978 L 0.602,5.436 C 0.602,6.338 0.333,6.393 0.011,6.445 L 0.011,6.618 C 0.333,6.596 0.645,6.563 0.957,6.563 C 1.257,6.563 1.58,6.596 1.88,6.618 L 1.88,6.445 C 1.568,6.393 1.289,6.338 1.289,5.436 L 1.289,0.29 L 2.761,0.29 C 3.717,0.29 4.352,0.419 4.566,1.364 L 4.823,1.321 C 4.705,0.784 4.577,0.247 4.512,-0.279 L 4.361,-0.279 C 4.222,-0.129 4.094,-0.118 3.782,-0.118 L 1.279,-0.118 C 0.849,-0.118 0.44,-0.161 0,-0.172 L 0,0"
           id="path2488"
           style="fill:#231f20;fill-opacity:1;fill-rule:nonzero;stroke:none" />
      </g>
      <g
         transform="matrix(1.25,0,0,-1.25,243.11937,275.19141)"
         id="g2490">
        <path
           d="M 0,0 C 0.538,0.097 0.602,0.344 0.602,0.988 L 0.602,5.457 C 0.602,6.135 0.57,6.317 0,6.445 L 0,6.618 C 0.173,6.618 0.345,6.596 0.517,6.586 C 0.688,6.575 0.871,6.563 1.043,6.563 C 1.333,6.563 1.612,6.586 1.902,6.618 C 2.192,6.639 2.482,6.661 2.762,6.661 C 4.954,6.661 6.285,5.425 6.285,3.223 C 6.285,1.869 5.576,-0.215 2.923,-0.215 C 2.45,-0.215 2.074,-0.193 1.763,-0.161 C 1.462,-0.14 1.236,-0.118 1.043,-0.118 C 0.688,-0.118 0.345,-0.15 0,-0.172 L 0,0 z M 1.29,0.988 C 1.29,0.193 1.376,0.193 2.923,0.193 C 4.523,0.193 5.598,1.3 5.598,3.233 C 5.598,5.124 4.523,6.253 2.676,6.253 C 2.214,6.253 1.741,6.21 1.29,6.112 L 1.29,0.988"
           id="path2492"
           style="fill:#231f20;fill-opacity:1;fill-rule:nonzero;stroke:none" />
      </g>
      <g
         transform="matrix(1.25,0,0,-1.25,252.58437,275.19141)"
         id="g2494">
        <path
           d="M 0,0 C 0.321,0.054 0.59,0.097 0.59,0.978 L 0.59,5.468 C 0.59,6.338 0.321,6.393 0,6.445 L 0,6.618 C 0.321,6.596 0.655,6.563 0.966,6.563 C 1.267,6.563 1.568,6.596 1.869,6.618 L 1.869,6.445 C 1.558,6.393 1.278,6.338 1.278,5.468 L 1.278,0.978 C 1.278,0.097 1.558,0.054 1.869,0 L 1.869,-0.172 C 1.568,-0.15 1.267,-0.118 0.966,-0.118 C 0.655,-0.118 0.321,-0.15 0,-0.172 L 0,0"
           id="path2496"
           style="fill:#231f20;fill-opacity:1;fill-rule:nonzero;stroke:none" />
      </g>
      <g
         transform="matrix(1.25,0,0,-1.25,258.77312,275.40641)"
         id="g2498">
        <path
           d="M 0,0 C -0.205,0.021 -0.409,0.054 -0.624,0.054 C -0.85,0.054 -1.086,0.021 -1.321,0 C -1.321,0.602 -1.236,1.278 -1.236,2.353 L -1.226,4.975 C -1.226,6.371 -1.289,6.435 -1.815,6.617 L -1.815,6.79 C -1.59,6.779 -1.364,6.735 -1.139,6.735 C -0.903,6.735 -0.656,6.779 -0.409,6.79 L 3.373,1.515 L 3.394,1.515 L 3.405,4.694 C 3.405,6.284 3.405,6.5 2.6,6.617 L 2.6,6.79 C 2.847,6.779 3.094,6.735 3.351,6.735 C 3.545,6.735 3.738,6.779 3.932,6.79 C 3.921,6.585 3.856,5.92 3.856,4.351 L 3.835,2.997 C 3.835,1.3 3.889,0.397 3.889,0 L 3.609,0 C 3.19,0.623 2.75,1.235 2.309,1.848 L 0.87,3.889 C 0.333,4.63 -0.216,5.371 -0.752,6.091 L -0.774,6.091 L -0.795,3.771 C -0.807,3.147 -0.807,2.46 -0.807,1.934 C -0.807,0.204 -0.581,0.258 0,0.172 L 0,0"
           id="path2500"
           style="fill:#231f20;fill-opacity:1;fill-rule:nonzero;stroke:none" />
      </g>
      <g
         transform="matrix(1.25,0,0,-1.25,273.00437,275.12391)"
         id="g2502">
        <path
           d="M 0,0 C -0.13,0 -0.28,0 -0.42,0.011 C -1.215,0.011 -1.978,-0.365 -2.869,-0.365 C -4.534,-0.365 -5.866,0.795 -5.866,3.18 C -5.866,5.136 -4.749,6.704 -2.676,6.704 C -2.321,6.704 -1.741,6.542 -1.536,6.542 C -1.419,6.542 -1.301,6.575 -1.194,6.704 L -1.032,6.704 C -0.968,6.232 -0.817,5.802 -0.624,5.382 L -0.839,5.264 C -1.194,5.704 -1.527,6.253 -2.665,6.253 C -4.309,6.253 -5.093,4.888 -5.093,3.18 C -5.093,1.364 -4.234,0.086 -2.665,0.086 C -1.536,0.086 -1.085,0.44 -1.085,1.107 L -1.085,2.009 C -1.085,2.89 -1.548,2.836 -1.903,2.9 L -1.903,3.072 C -1.698,3.04 -1.429,3.02 -1.194,3.02 C -0.946,3.02 -0.656,3.04 -0.451,3.072 C -0.399,2.911 -0.399,2.557 -0.399,2.245 L -0.399,1.354 C -0.399,0.408 -0.399,0.258 0,0.172 L 0,0"
           id="path2504"
           style="fill:#231f20;fill-opacity:1;fill-rule:nonzero;stroke:none" />
      </g>
      <g
         transform="matrix(1.25,0,0,-1.25,274.30312,275.58016)"
         id="g2506">
        <path
           d="M 0,0 C -0.022,0.451 -0.108,1.257 -0.204,1.826 L 0.054,1.858 C 0.161,1.343 0.451,0.451 1.998,0.451 C 3.105,0.451 3.727,1.096 3.727,1.805 C 3.727,3.878 -0.075,2.814 -0.075,5.146 C -0.075,6.296 0.741,7.058 2.053,7.069 C 2.89,7.069 3.083,6.844 3.514,6.844 C 3.62,6.844 3.707,6.93 3.792,6.982 L 3.921,6.982 C 3.975,6.531 4.051,6.048 4.146,5.597 L 3.921,5.543 C 3.739,5.897 3.351,6.618 2.191,6.618 C 1.042,6.618 0.558,5.995 0.558,5.328 C 0.558,3.405 4.361,4.438 4.361,1.987 C 4.361,0.956 3.642,0 2.019,0 C 1.171,0 0.752,0.236 0.462,0.236 C 0.344,0.236 0.236,0.183 0.172,0 L 0,0"
           id="path2508"
           style="fill:#231f20;fill-opacity:1;fill-rule:nonzero;stroke:none" />
      </g>
      <g
         transform="matrix(1.25,0,0,-1.25,284.79812,275.19141)"
         id="g2510">
        <path
           d="M 0,0 C 0.504,0.075 0.602,0.376 0.602,0.978 L 0.602,5.436 C 0.602,6.338 0.333,6.393 0.01,6.445 L 0.01,6.618 C 0.333,6.596 0.645,6.563 0.955,6.563 C 1.256,6.563 1.579,6.596 1.88,6.618 L 1.88,6.445 C 1.568,6.393 1.289,6.338 1.289,5.436 L 1.289,0.29 L 2.761,0.29 C 3.717,0.29 4.351,0.419 4.566,1.364 L 4.824,1.321 C 4.705,0.784 4.577,0.247 4.512,-0.279 L 4.362,-0.279 C 4.222,-0.129 4.093,-0.118 3.782,-0.118 L 1.279,-0.118 C 0.848,-0.118 0.44,-0.161 0,-0.172 L 0,0"
           id="path2512"
           style="fill:#231f20;fill-opacity:1;fill-rule:nonzero;stroke:none" />
      </g>
      <g
         transform="matrix(1.25,0,0,-1.25,291.61812,275.19141)"
         id="g2514">
        <path
           d="M 0,0 C 0.323,0.054 0.591,0.097 0.591,0.978 L 0.591,5.468 C 0.591,6.338 0.323,6.393 0,6.445 L 0,6.618 C 0.323,6.596 0.656,6.563 0.967,6.563 C 1.268,6.563 1.57,6.596 1.871,6.618 L 1.871,6.445 C 1.558,6.393 1.279,6.338 1.279,5.468 L 1.279,0.978 C 1.279,0.097 1.558,0.054 1.871,0 L 1.871,-0.172 C 1.57,-0.15 1.268,-0.118 0.967,-0.118 C 0.656,-0.118 0.323,-0.15 0,-0.172 L 0,0"
           id="path2516"
           style="fill:#231f20;fill-opacity:1;fill-rule:nonzero;stroke:none" />
      </g>
      <g
         transform="matrix(1.25,0,0,-1.25,296.22312,270.80016)"
         id="g2518">
        <path
           d="M 0,0 C 0.075,1.333 0.075,0.999 0.075,1.944 C 0.075,2.933 -0.301,2.805 -0.483,2.933 L -0.483,3.105 C -0.215,3.095 0.054,3.051 0.322,3.051 C 0.548,3.051 0.763,3.095 0.988,3.105 L 3.158,-2.406 L 5.275,3.105 C 5.544,3.095 5.813,3.051 6.091,3.051 C 6.316,3.051 6.542,3.095 6.779,3.105 L 6.779,2.933 C 6.479,2.869 6.209,2.794 6.209,2.192 C 6.209,2.063 6.209,1.935 6.221,1.816 L 6.467,-1.611 C 6.574,-3.158 6.51,-3.255 7.145,-3.513 L 7.145,-3.685 C 6.833,-3.663 6.522,-3.631 6.209,-3.631 C 5.845,-3.631 5.479,-3.663 5.125,-3.685 L 5.125,-3.513 C 5.587,-3.405 5.877,-3.427 5.877,-2.729 C 5.877,-2.546 5.865,-2.363 5.855,-2.181 L 5.522,2.536 L 5.501,2.536 L 4.458,-0.086 C 3.985,-1.268 3.427,-2.857 3.137,-3.685 L 2.997,-3.685 C 2.492,-2.396 1.987,-1.117 1.461,0.15 L 0.548,2.386 L 0.526,2.386 L 0.301,-1.998 C 0.289,-2.17 0.289,-2.385 0.289,-2.6 C 0.289,-3.437 0.698,-3.459 1.064,-3.513 L 1.064,-3.685 C 0.806,-3.663 0.548,-3.631 0.301,-3.631 C 0.107,-3.631 -0.075,-3.663 -0.269,-3.685 L 0,0"
           id="path2520"
           style="fill:#231f20;fill-opacity:1;fill-rule:nonzero;stroke:none" />
      </g>
      <g
         transform="matrix(1.25,0,0,-1.25,306.53437,275.19141)"
         id="g2522">
        <path
           d="M 0,0 C 0.321,0.054 0.59,0.097 0.59,0.978 L 0.59,5.468 C 0.59,6.338 0.321,6.393 0,6.445 L 0,6.618 C 0.321,6.596 0.655,6.563 0.966,6.563 C 1.267,6.563 1.568,6.596 1.869,6.618 L 1.869,6.445 C 1.558,6.393 1.278,6.338 1.278,5.468 L 1.278,0.978 C 1.278,0.097 1.558,0.054 1.869,0 L 1.869,-0.172 C 1.568,-0.15 1.267,-0.118 0.966,-0.118 C 0.655,-0.118 0.321,-0.15 0,-0.172 L 0,0"
           id="path2524"
           style="fill:#231f20;fill-opacity:1;fill-rule:nonzero;stroke:none" />
      </g>
      <g
         transform="matrix(1.25,0,0,-1.25,312.30562,275.19141)"
         id="g2526">
        <path
           d="M 0,0 C 0.462,0.097 0.57,0.14 0.57,0.978 L 0.57,6.156 L -0.075,6.156 C -1.224,6.156 -1.343,5.78 -1.536,5.297 L -1.783,5.35 C -1.654,5.898 -1.6,6.037 -1.6,6.726 L -1.386,6.726 C -1.364,6.65 -1.267,6.607 -1.149,6.586 C -1.031,6.563 -0.891,6.563 -0.795,6.563 L 2.622,6.563 C 2.977,6.563 3.127,6.563 3.213,6.726 L 3.428,6.726 C 3.428,6.037 3.482,5.898 3.611,5.35 L 3.364,5.297 C 3.213,5.748 3.03,6.156 1.902,6.156 L 1.257,6.156 L 1.257,0.978 C 1.257,0.172 1.407,0.107 1.826,0 L 1.826,-0.172 C 1.515,-0.15 1.214,-0.118 0.904,-0.118 C 0.592,-0.118 0.312,-0.15 0,-0.172 L 0,0"
           id="path2528"
           style="fill:#231f20;fill-opacity:1;fill-rule:nonzero;stroke:none" />
      </g>
      <g
         transform="matrix(1.25,0,0,-1.25,318.01187,275.19141)"
         id="g2530">
        <path
           d="M 0,0 C 0.537,0.086 0.58,0.29 0.58,0.978 L 0.58,5.468 C 0.58,5.951 0.58,6.37 0,6.445 L 0,6.618 C 0.129,6.607 0.268,6.586 0.408,6.575 C 0.548,6.575 0.687,6.563 0.805,6.563 L 3.426,6.563 C 3.717,6.563 4.007,6.596 4.275,6.746 L 4.425,6.746 C 4.469,6.167 4.469,6.081 4.597,5.36 L 4.362,5.307 C 4.028,5.919 4.028,6.156 2.223,6.156 L 1.267,6.156 L 1.267,3.771 L 2.213,3.771 C 3.62,3.771 3.588,4.007 3.738,4.512 L 3.986,4.512 C 3.943,4.189 3.911,3.867 3.911,3.534 C 3.911,3.255 3.953,2.965 3.986,2.675 L 3.738,2.675 C 3.62,3.244 3.674,3.362 2.213,3.362 L 1.267,3.362 L 1.267,0.978 C 1.267,0.29 1.267,0.29 2.309,0.29 L 3.233,0.29 C 4.329,0.29 4.512,0.806 4.78,1.321 L 5.007,1.321 C 4.941,0.935 4.877,0.569 4.877,0.183 C 4.877,0.032 4.888,-0.129 4.888,-0.269 L 4.716,-0.269 C 4.501,-0.118 4.212,-0.118 3.953,-0.118 L 0.956,-0.118 C 0.633,-0.118 0.322,-0.15 0,-0.172 L 0,0"
           id="path2532"
           style="fill:#231f20;fill-opacity:1;fill-rule:nonzero;stroke:none" />
      </g>
      <g
         transform="matrix(1.25,0,0,-1.25,325.66437,275.19141)"
         id="g2534">
        <path
           d="M 0,0 C 0.537,0.097 0.601,0.344 0.601,0.988 L 0.601,5.457 C 0.601,6.135 0.569,6.317 0,6.445 L 0,6.618 C 0.172,6.618 0.344,6.596 0.515,6.586 C 0.687,6.575 0.87,6.563 1.042,6.563 C 1.332,6.563 1.611,6.586 1.902,6.618 C 2.191,6.639 2.481,6.661 2.761,6.661 C 4.953,6.661 6.285,5.425 6.285,3.223 C 6.285,1.869 5.576,-0.215 2.923,-0.215 C 2.449,-0.215 2.073,-0.193 1.761,-0.161 C 1.461,-0.14 1.235,-0.118 1.042,-0.118 C 0.687,-0.118 0.344,-0.15 0,-0.172 L 0,0 z M 1.289,0.988 C 1.289,0.193 1.376,0.193 2.923,0.193 C 4.522,0.193 5.597,1.3 5.597,3.233 C 5.597,5.124 4.522,6.253 2.675,6.253 C 2.213,6.253 1.74,6.21 1.289,6.112 L 1.289,0.988"
           id="path2536"
           style="fill:#231f20;fill-opacity:1;fill-rule:nonzero;stroke:none" />
      </g>
      <g
         transform="matrix(1.25,0,0,-1.25,-329.40313,1152.7752)"
         id="g2538">
        <g
           clip-path="url(#clipPath2542)"
           id="g2540">
          <path
             d="M 380.023,750.689 L 531.022,750.689 L 531.022,752.0752 L 380.023,752.0752 L 380.023,750.689 z"
             id="path2546"
             style="fill:#231f20;fill-opacity:1;fill-rule:nonzero;stroke:none" />
          <path
             d="M 380.023,693.157 L 531.022,693.157 L 531.022,694.5416 L 380.023,694.5416 L 380.023,693.157 z"
             id="path2548"
             style="fill:#231f20;fill-opacity:1;fill-rule:nonzero;stroke:none" />
        </g>
      </g>
    </g>
  </g>
</svg>
