<?xml version="1.0" encoding="UTF-8" standalone="no"?>
<!-- Generator: Adobe Illustrator 26.3.1, SVG Export Plug-In . SVG Version: 6.00 Build 0)  -->

<svg
   version="1.1"
   id="Layer_1"
   x="0px"
   y="0px"
   viewBox="0 0 363.04999 60.979997"
   xml:space="preserve"
   sodipodi:docname="Markel_Logo.svg"
   width="363.04999"
   height="60.98"
   inkscape:version="1.3 (0e150ed6c4, 2023-07-21)"
   xmlns:inkscape="http://www.inkscape.org/namespaces/inkscape"
   xmlns:sodipodi="http://sodipodi.sourceforge.net/DTD/sodipodi-0.dtd"
   xmlns="http://www.w3.org/2000/svg"
   xmlns:svg="http://www.w3.org/2000/svg"><defs
   id="defs2" /><sodipodi:namedview
   id="namedview2"
   pagecolor="#ffffff"
   bordercolor="#000000"
   borderopacity="0.25"
   inkscape:showpageshadow="2"
   inkscape:pageopacity="0.0"
   inkscape:pagecheckerboard="0"
   inkscape:deskcolor="#d1d1d1"
   inkscape:zoom="2.824196"
   inkscape:cx="181.64462"
   inkscape:cy="30.628186"
   inkscape:window-width="1920"
   inkscape:window-height="1017"
   inkscape:window-x="-8"
   inkscape:window-y="-8"
   inkscape:window-maximized="1"
   inkscape:current-layer="Layer_1" />&#10;<style
   type="text/css"
   id="style1">&#10;	.st0{fill:#424242;}&#10;	.st1{fill:#FF4E00;}&#10;</style>&#10;<g
   id="g2"
   transform="translate(-44.38,-44.38)">&#10;	<path
   class="st0"
   d="M 332.33,105.36 V 60.98 h 33.3 v 7.7 h -24.37 v 10.51 h 19.91 v 7.24 h -19.91 v 11.23 h 24.3 v 7.7 z m 75.1,0 V 97.6 H 383.84 V 60.98 h -8.93 v 44.38 z m -83.74,0 -18.22,-25.47 17.84,-18.91 h -10.84 l -17.35,18.18 h -2.98 V 60.98 h -8.93 v 44.38 h 8.93 V 86.43 h 8.07 l 13.54,18.92 h 9.94 z m -150.03,0 V 60.98 h -10.39 l -14.16,22.81 h -0.66 L 134.41,60.98 h -10.45 v 44.38 h 8.72 V 73.55 l 11.9,18.61 h 8.53 l 11.9,-18.61 v 31.81 z m 54.9,0 -20.03,-44.38 h -8.63 l -19.97,44.38 h 9.6 l 3.75,-8.85 h 21.87 l 3.74,8.85 z M 203.85,71.59 h 0.78 l 7.27,17.22 h -15.36 z m 69.66,33.77 -11.1,-16.82 v 0 c 0.68,-0.07 1.35,-0.19 2,-0.37 6.32,-1.78 9.92,-6.55 9.92,-13.23 0,-8.48 -6.17,-13.96 -15.71,-13.96 H 235.2 v 44.38 h 8.93 v -16.4 h 8.8 l 10.5,16.4 z M 244.12,68.67 h 13.39 c 5.3,0 7.88,2.01 7.88,6.13 0,4.06 -2.83,6.39 -7.75,6.39 h -13.52 z"
   id="path1" />&#10;	<path
   class="st1"
   d="M 62.97,105.36 H 44.38 V 68.49 l 18.59,-7.34 z m 21.19,-52.6 -18.59,7.35 v 45.24 h 18.59 z m 21.19,-8.38 -18.59,7.35 v 53.62 h 18.59 z"
   id="path2" />&#10;</g>&#10;</svg>
