<svg version="1.1" id="Layer_1" xmlns:x="ns_extend;" xmlns:i="ns_ai;" xmlns:graph="ns_graphs;" xmlns="http://www.w3.org/2000/svg" xmlns:xlink="http://www.w3.org/1999/xlink" x="0px" y="0px" viewBox="0 0 159 46" style="enable-background:new 0 0 159 46;" xml:space="preserve">
 <style type="text/css">
  .st0{fill-rule:evenodd;clip-rule:evenodd;fill:#282828;}
	.st1{fill-rule:evenodd;clip-rule:evenodd;fill:#00AFF4;}
 </style>
 <metadata>
  <sfw xmlns="ns_sfw;">
   <slices>
   </slices>
   <sliceSourceBounds bottomLeftOrigin="true" height="46" width="159" x="121" y="-223.4">
   </sliceSourceBounds>
  </sfw>
 </metadata>
 <g>
  <path class="st0" d="M86.5,38.3c-2.3-2.1-4.7-3.7-7.3-4.7c-2.6-1.1-5.2-1.6-7.9-1.6c-0.8,0-1.5,0.1-2.2,0.2
		c-0.7,0.1-1.4,0.3-2.1,0.5c1.6,2.3,3.5,4,5.8,5.2c2.3,1.2,4.8,1.9,7.4,1.9c1,0,2-0.1,3-0.4C84.3,39.1,85.4,38.7,86.5,38.3z
		 M91.4,34.7c1.6-1.8,2.8-3.7,3.5-5.6c0.7-1.9,1.1-4,1.1-6.5c0-2-0.4-4-1.1-5.9c-0.7-1.9-1.8-3.6-3.2-5.1c-1.6-1.8-3.4-3.1-5.3-4
		c-1.9-0.9-4-1.3-6.4-1.3c-2.1,0-4.1,0.4-5.9,1.2c-1.9,0.8-3.6,2-5,3.4c-1.6,1.6-2.8,3.5-3.6,5.5c-0.8,2.1-1.3,4.3-1.3,6.5
		c0,0.7,0.1,1.4,0.2,2.2c0.1,0.8,0.3,1.6,0.5,2.4c1-0.5,2.1-0.9,3.2-1.1c1.2-0.2,2.5-0.3,4.1-0.3c3.3,0,6.6,0.7,9.9,2.2
		C85.3,29.9,88.4,31.9,91.4,34.7z M92.2,42.4c-1.8,1.2-3.8,2.1-5.8,2.7C84.3,45.7,82.2,46,80,46c-2.6,0-5-0.4-7.4-1.2
		c-2.4-0.8-4.6-2.1-6.5-3.6c-2.7-2.2-4.9-4.9-6.3-8.1c-1.5-3.2-2.2-6.6-2.2-10.3c0-3.1,0.6-6,1.8-8.8c1.2-2.8,2.9-5.3,5.1-7.6
		c2-2,4.5-3.7,7.1-4.8C74.2,0.5,77,0,80,0c3.1,0,5.9,0.5,8.6,1.6c2.6,1.1,5,2.7,7.2,4.9c2.2,2.2,3.9,4.7,5.1,7.6
		c1.1,2.8,1.7,5.9,1.7,9.2c0,2.9-0.5,5.6-1.4,8c-0.9,2.4-2.3,4.7-4.1,6.8c0.8,0.4,1.6,0.6,2.4,0.8c0.9,0.2,1.8,0.3,2.7,0.3h0.8v6.2
		h-0.6c-1.7,0-3.4-0.3-5-0.8C95.6,44.1,93.9,43.3,92.2,42.4z M113,19.4h2c3.3,0,5.7-0.5,7.1-1.5c1.4-1,2.1-2.7,2.1-5
		c0-2.1-0.6-3.6-1.9-4.6c-1.3-1-3.3-1.5-5.9-1.5H113V19.4z M113,39.3h5.1c3,0,5.2-0.6,6.6-1.7c1.4-1.1,2.1-2.8,2.1-5.2
		c0-2.5-0.7-4.5-2.2-5.8c-1.5-1.3-3.6-2-6.5-2H113V39.3z M116.2,0.7c4.7,0,8.4,1,10.8,3.1c2.5,2.1,3.7,5.1,3.7,9.1
		c0,1.8-0.4,3.5-1.2,4.9c-0.8,1.4-2,2.6-3.5,3.5c2.2,0.6,3.9,1.9,5.2,3.8c1.3,1.9,1.9,4.1,1.9,6.7c0,2-0.4,4-1.2,5.9
		c-0.8,1.8-1.8,3.3-3.2,4.5c-1.3,1.1-2.9,2-4.6,2.5c-1.7,0.5-4.1,0.7-7.2,0.7h-10.3V0.7H116.2L116.2,0.7z M159,45.4h-23.1V0.7H159v6
		h-16.7V20H159v5.8h-16.7v13.4H159V45.4">
  </path>
  <path class="st1" d="M37.4,33.4c1.3,0,2.5-0.5,3.4-1.4c0.9-0.9,1.4-2.1,1.4-3.4c0-0.9-0.2-1.7-0.7-2.5L31.6,8.8
		c-0.5-3.3-2.3-6.2-5.1-8C30.6,0,34.8,2,36.9,5.6l10.2,17.7c2.7,4.8,1.1,10.8-3.6,13.6c-4.6,2.7-10.6,1.2-13.4-3.4H37.4">
  </path>
  <path class="st1" d="M37.4,25.5H25l-3.6,6.2h16c1.7,0,3.1-1.4,3.1-3.1l0,0C40.5,26.9,39.1,25.5,37.4,25.5 M25.1,8.9
		c-0.6-1.1-1.7-1.9-2.9-2.2c-1.2-0.3-2.6-0.2-3.7,0.5c-0.8,0.5-1.4,1.1-1.8,1.8L6.8,26.3c-2.6,2.1-4.2,5.1-4.4,8.4
		c-2.7-3.2-3.2-7.8-1.1-11.4L11.5,5.6c2.7-4.7,8.7-6.4,13.5-3.7c0,0,0,0,0.1,0c4.7,2.7,6.3,8.6,3.8,13.3L25.1,8.9">
  </path>
  <path class="st1" d="M18.3,12.9l6.2,10.8h7.2l-8-13.9c-0.8-1.5-2.7-2-4.2-1.2c0,0,0,0,0,0C17.9,9.6,17.4,11.5,18.3,12.9 M10.1,31.8
		c-0.6,1.1-0.8,2.4-0.5,3.7c0.3,1.2,1.1,2.3,2.3,2.9c0.8,0.4,1.6,0.7,2.5,0.6h19.9c3.1,1.2,6.5,1.1,9.5-0.4c-1.4,3.9-5,6.7-9.4,6.7
		H14c-5.5,0-9.9-4.5-9.9-9.9c0-5.4,4.3-9.8,9.6-9.9L10.1,31.8">
  </path>
  <path class="st1" d="M17,35.8L23.2,25l-3.6-6.2l-8,13.9c-0.9,1.5-0.4,3.4,1.1,4.3C14.2,37.8,16.1,37.3,17,35.8">
  </path>
 </g>
</svg>